<?xml version="1.0" encoding="UTF-8" standalone="no"?>
<!-- Created with Inkscape (http://www.inkscape.org/) -->

<svg
   width="250mm"
   height="250mm"
   viewBox="0 0 250 250"
   version="1.1"
   id="svg5"
   xml:space="preserve"
   inkscape:version="1.2-beta (1b65182ce9, 2022-04-05)"
   sodipodi:docname="250_ldo_texture.svg"
   xmlns:inkscape="http://www.inkscape.org/namespaces/inkscape"
   xmlns:sodipodi="http://sodipodi.sourceforge.net/DTD/sodipodi-0.dtd"
   xmlns="http://www.w3.org/2000/svg"
   xmlns:svg="http://www.w3.org/2000/svg"><sodipodi:namedview
     id="namedview7"
     pagecolor="#ffffff"
     bordercolor="#666666"
     borderopacity="1.0"
     inkscape:pageshadow="2"
     inkscape:pageopacity="0.0"
     inkscape:pagecheckerboard="0"
     inkscape:deskcolor="#d1d1d1"
     inkscape:document-units="mm"
     showgrid="false"
     inkscape:zoom="0.75455247"
     inkscape:cx="713.66806"
     inkscape:cy="703.72839"
     inkscape:window-width="1920"
     inkscape:window-height="1027"
     inkscape:window-x="1912"
     inkscape:window-y="-8"
     inkscape:window-maximized="1"
     inkscape:current-layer="layer1" /><defs
     id="defs2"><marker
       id="DistanceX"
       orient="auto"
       refX="0"
       refY="0"
       style="overflow:visible"><path
         d="M 3,-3 -3,3 M 0,-5 V 5"
         style="stroke:#000000;stroke-width:0.5"
         id="path184" /></marker><pattern
       id="Hatch"
       patternUnits="userSpaceOnUse"
       width="8"
       height="8"
       x="0"
       y="0"><path
         d="M8 4 l-4,4"
         stroke="#000000"
         stroke-width="0.25"
         linecap="square"
         id="path187" /><path
         d="M6 2 l-4,4"
         stroke="#000000"
         stroke-width="0.25"
         linecap="square"
         id="path189" /><path
         d="M4 0 l-4,4"
         stroke="#000000"
         stroke-width="0.25"
         linecap="square"
         id="path191" /></pattern><symbol
       id="*Model_Space" /><symbol
       id="*Paper_Space" /><symbol
       id="*Paper_Space0" /><marker
       id="DistanceX-8"
       orient="auto"
       refX="0.0"
       refY="0.0"
       style="overflow:visible"><path
         d="M 3,-3 L -3,3 M 0,-5 L  0,5"
         style="stroke:#000000; stroke-width:0.5"
         id="path781" /></marker><pattern
       id="Hatch-2"
       patternUnits="userSpaceOnUse"
       width="8"
       height="8"
       x="0"
       y="0"><path
         d="M8 4 l-4,4"
         stroke="#000000"
         stroke-width="0.25"
         linecap="square"
         id="path784" /><path
         d="M6 2 l-4,4"
         stroke="#000000"
         stroke-width="0.25"
         linecap="square"
         id="path786" /><path
         d="M4 0 l-4,4"
         stroke="#000000"
         stroke-width="0.25"
         linecap="square"
         id="path788" /></pattern><symbol
       id="*Model_Space-9" /><symbol
       id="*Paper_Space-7" /><symbol
       id="*Paper_Space0-7" /><marker
       id="DistanceX-3"
       orient="auto"
       refX="0.0"
       refY="0.0"
       style="overflow:visible"><path
         d="M 3,-3 L -3,3 M 0,-5 L  0,5"
         style="stroke:#000000; stroke-width:0.5"
         id="path2541" /></marker><pattern
       id="Hatch-3"
       patternUnits="userSpaceOnUse"
       width="8"
       height="8"
       x="0"
       y="0"><path
         d="M8 4 l-4,4"
         stroke="#000000"
         stroke-width="0.25"
         linecap="square"
         id="path2544" /><path
         d="M6 2 l-4,4"
         stroke="#000000"
         stroke-width="0.25"
         linecap="square"
         id="path2546" /><path
         d="M4 0 l-4,4"
         stroke="#000000"
         stroke-width="0.25"
         linecap="square"
         id="path2548" /></pattern><symbol
       id="*Model_Space-2" /><symbol
       id="*Paper_Space-1" /><symbol
       id="*Paper_Space0-8" /><pattern
       y="0"
       x="0"
       height="6"
       width="6"
       patternUnits="userSpaceOnUse"
       id="EMFhbasepattern" /><pattern
       y="0"
       x="0"
       height="6"
       width="6"
       patternUnits="userSpaceOnUse"
       id="EMFhbasepattern-6" /><pattern
       y="0"
       x="0"
       height="6"
       width="6"
       patternUnits="userSpaceOnUse"
       id="EMFhbasepattern-4" /><pattern
       y="0"
       x="0"
       height="6"
       width="6"
       patternUnits="userSpaceOnUse"
       id="EMFhbasepattern-6-1" /></defs><g
     inkscape:label="Layer 1"
     inkscape:groupmode="layer"
     id="layer1"><g
       id="g11035"
       style="stroke:#b3b3b3"><path
         style="fill:none;stroke:#b3b3b3;stroke-width:0.66145833;stroke-dasharray:none"
         d="M 0.13229167,250.13232 H 250.13232"
         id="path2556" /><path
         style="fill:none;stroke:#b3b3b3;stroke-width:0.66145833;stroke-dasharray:none"
         d="M 250.13232,250.13232 V 0.13229157"
         id="path2558" /><path
         style="fill:none;stroke:#b3b3b3;stroke-width:0.66145833;stroke-dasharray:none"
         d="M 250.13232,0.13229157 H 0.13229167"
         id="path2560" /><path
         style="fill:none;stroke:#b3b3b3;stroke-width:0.66145833;stroke-dasharray:none"
         d="M 0.13229167,0.13229157 V 250.13232"
         id="path2562" /><path
         style="fill:none;stroke:#b3b3b3;stroke-width:0.66145833;stroke-dasharray:none"
         d="M 0.13229167,200.13215 H 250.13232"
         id="path2564" /><path
         style="fill:none;stroke:#b3b3b3;stroke-width:0.66145833;stroke-dasharray:none"
         d="M 0.13229167,150.13225 H 250.13232"
         id="path2566" /><path
         style="fill:none;stroke:#b3b3b3;stroke-width:0.66145833;stroke-dasharray:none"
         d="M 0.13229167,100.13235 H 250.13232"
         id="path2568" /><path
         style="fill:none;stroke:#b3b3b3;stroke-width:0.66145833;stroke-dasharray:none"
         d="M 0.13229167,50.132191 H 250.13232"
         id="path2570" /><path
         style="fill:none;stroke:#b3b3b3;stroke-width:0.66145833;stroke-dasharray:none"
         d="M 50.132191,0.13229157 V 250.13232"
         id="path2572" /><path
         style="fill:none;stroke:#b3b3b3;stroke-width:0.66145833;stroke-dasharray:none"
         d="M 100.13235,0.13229157 V 250.13232"
         id="path2574" /><path
         style="fill:none;stroke:#b3b3b3;stroke-width:0.66145833;stroke-dasharray:none"
         d="M 150.13225,0.13229157 V 250.13232"
         id="path2576" /><path
         style="fill:none;stroke:#b3b3b3;stroke-width:0.66145833;stroke-dasharray:none"
         d="m 200.04403,238.08889 v 11.84944"
         id="path2656-3-5-5-4" /><path
         style="fill:none;stroke:#b3b3b3;stroke-width:0.661458;stroke-dasharray:none"
         d="M 200.13242,0.13229157 V 210.0662"
         id="path2578"
         inkscape:label="MajorGrid1"
         sodipodi:nodetypes="cc" /></g><path
       style="fill:none;stroke:#b3b3b3;stroke-width:0.13229167;stroke-dasharray:none"
       d="M 0.13229167,240.13107 H 250.13232"
       id="path2580" /><path
       style="fill:none;stroke:#b3b3b3;stroke-width:0.132292;stroke-dasharray:none"
       d="M 0.7934995,230.11216 168.65018,229.98819"
       id="path2582"
       sodipodi:nodetypes="cc" /><path
       style="fill:none;stroke:#b3b3b3;stroke-width:0.132292;stroke-dasharray:none"
       d="M 0.63229167,220.13121 H 168.65018"
       id="path2584"
       sodipodi:nodetypes="cc" /><path
       style="fill:none;stroke:#b3b3b3;stroke-width:0.132292;stroke-dasharray:none"
       d="M 232.03106,220.08821 H 250"
       id="path2584-5"
       sodipodi:nodetypes="cc" /><path
       style="fill:none;stroke:#b3b3b3;stroke-width:0.132292;stroke-dasharray:none"
       d="m 0.13229167,210.13235 168.51788833,0"
       id="path2586"
       sodipodi:nodetypes="cc" /><path
       style="fill:none;stroke:#b3b3b3;stroke-width:0.13229167;stroke-dasharray:none"
       d="M 0.13229167,190.13223 H 250.13232"
       id="path2588" /><path
       style="fill:none;stroke:#b3b3b3;stroke-width:0.13229167;stroke-dasharray:none"
       d="M 0.13229167,180.1323 H 250.13232"
       id="path2590" /><path
       style="fill:none;stroke:#b3b3b3;stroke-width:0.13229167;stroke-dasharray:none"
       d="M 0.13229167,170.13211 H 250.13232"
       id="path2592" /><path
       style="fill:none;stroke:#b3b3b3;stroke-width:0.13229167;stroke-dasharray:none"
       d="M 0.13229167,160.13218 H 250.13232"
       id="path2594" /><path
       style="fill:none;stroke:#b3b3b3;stroke-width:0.13229167;stroke-dasharray:none"
       d="M 0.13229167,140.13233 H 250.13232"
       id="path2596" /><path
       style="fill:none;stroke:#b3b3b3;stroke-width:0.13229167;stroke-dasharray:none"
       d="M 0.13229167,130.13214 H 250.13232"
       id="path2598" /><path
       style="fill:none;stroke:#b3b3b3;stroke-width:0.13229167;stroke-dasharray:none"
       d="M 0.13229167,120.13221 H 250.13232"
       id="path2600" /><path
       style="fill:none;stroke:#b3b3b3;stroke-width:0.13229167;stroke-dasharray:none"
       d="M 0.13229167,110.13228 H 250.13232"
       id="path2602" /><path
       style="fill:none;stroke:#b3b3b3;stroke-width:0.13229167;stroke-dasharray:none"
       d="M 0.13229167,90.132163 H 250.13232"
       id="path2604" /><path
       style="fill:none;stroke:#b3b3b3;stroke-width:0.13229167;stroke-dasharray:none"
       d="M 0.13229167,80.132236 H 250.13232"
       id="path2606" /><path
       style="fill:none;stroke:#b3b3b3;stroke-width:0.13229167;stroke-dasharray:none"
       d="M 0.13229167,70.132309 H 250.13232"
       id="path2608" /><path
       style="fill:none;stroke:#b3b3b3;stroke-width:0.13229167;stroke-dasharray:none"
       d="M 0.13229167,60.132118 H 250.13232"
       id="path2610" /><path
       style="fill:none;stroke:#b3b3b3;stroke-width:0.13229167;stroke-dasharray:none"
       d="M 0.13229167,40.132264 H 250.13232"
       id="path2612" /><path
       style="fill:none;stroke:#b3b3b3;stroke-width:0.132292;stroke-dasharray:none"
       d="m 0.13229167,30.132337 250.00002833,0"
       id="path2614"
       sodipodi:nodetypes="cc" /><path
       style="fill:none;stroke:#b3b3b3;stroke-width:0.132292;stroke-dasharray:none"
       d="m 0.13229167,20.132145 250.00002833,0"
       id="path2616"
       sodipodi:nodetypes="cc" /><path
       style="fill:none;stroke:#b3b3b3;stroke-width:0.13229167;stroke-dasharray:none"
       d="M 0.13229167,10.132219 H 250.13232"
       id="path2618" /><path
       style="fill:none;stroke:#b3b3b3;stroke-width:0.13229167;stroke-dasharray:none"
       d="M 10.132298,0.13229157 V 250.13232"
       id="path2620" /><path
       style="fill:none;stroke:#b3b3b3;stroke-width:0.132292;stroke-dasharray:none"
       d="m 20.833603,0.13229157 0,250.00002843"
       id="path2622"
       sodipodi:nodetypes="cc" /><path
       style="fill:none;stroke:#b3b3b3;stroke-width:0.132292;stroke-dasharray:none"
       d="m 30.833636,0.13229157 0,250.00002843"
       id="path2624"
       sodipodi:nodetypes="cc" /><path
       style="fill:none;stroke:#b3b3b3;stroke-width:0.13229167;stroke-dasharray:none"
       d="M 40.132264,0.13229157 V 250.13232"
       id="path2626" /><path
       style="fill:none;stroke:#b3b3b3;stroke-width:0.13229167;stroke-dasharray:none"
       d="M 60.132383,0.13229157 V 250.13232"
       id="path2628" /><path
       style="fill:none;stroke:#b3b3b3;stroke-width:0.13229167;stroke-dasharray:none"
       d="M 70.13231,0.13229157 V 250.13232"
       id="path2630" /><path
       style="fill:none;stroke:#b3b3b3;stroke-width:0.13229167;stroke-dasharray:none"
       d="M 80.132236,0.13229157 V 250.13232"
       id="path2632" /><path
       style="fill:none;stroke:#b3b3b3;stroke-width:0.13229167;stroke-dasharray:none"
       d="M 90.132163,0.13229157 V 250.13232"
       id="path2634" /><path
       style="fill:none;stroke:#b3b3b3;stroke-width:0.13229167;stroke-dasharray:none"
       d="M 110.13228,0.13229157 V 250.13232"
       id="path2636" /><path
       style="fill:none;stroke:#b3b3b3;stroke-width:0.13229167;stroke-dasharray:none"
       d="M 120.13221,0.13229157 V 250.13232"
       id="path2638" /><path
       style="fill:none;stroke:#b3b3b3;stroke-width:0.13229167;stroke-dasharray:none"
       d="M 130.1324,0.13229157 V 250.13232"
       id="path2640" /><path
       style="fill:none;stroke:#b3b3b3;stroke-width:0.13229167;stroke-dasharray:none"
       d="M 140.13233,0.13229157 V 250.13232"
       id="path2642" /><path
       style="fill:none;stroke:#b3b3b3;stroke-width:0.13229167;stroke-dasharray:none"
       d="M 160.13218,0.13229157 V 250.13232"
       id="path2644" /><path
       style="fill:none;stroke:#b3b3b3;stroke-width:0.132292;stroke-dasharray:none"
       d="m 170.13237,0.13229157 0,207.39612843"
       id="path2646"
       sodipodi:nodetypes="cc" /><path
       style="fill:none;stroke:#b3b3b3;stroke-width:0.132292;stroke-dasharray:none"
       d="m 180.1323,0.13229157 0,207.39612843"
       id="path2648"
       sodipodi:nodetypes="cc" /><path
       style="fill:none;stroke:#b3b3b3;stroke-width:0.132292;stroke-dasharray:none"
       d="M 190.13223,0.13229157 V 207.52842"
       id="path2650"
       sodipodi:nodetypes="cc" /><path
       style="fill:none;stroke:#b3b3b3;stroke-width:0.132292;stroke-dasharray:none"
       d="M 210.13235,0.13229157 V 207.52842"
       id="path2652"
       sodipodi:nodetypes="cc" /><path
       style="fill:none;stroke:#b3b3b3;stroke-width:0.132292;stroke-dasharray:none"
       d="M 220.13227,0.63229157 220.25624,207.52842"
       id="path2654"
       sodipodi:nodetypes="cc" /><path
       style="fill:none;stroke:#b3b3b3;stroke-width:0.132292;stroke-dasharray:none"
       d="m 230.1322,0.63229157 0,207.26514843"
       id="path2656"
       sodipodi:nodetypes="cc" /><path
       style="fill:none;stroke:#b3b3b3;stroke-width:0.13229167;stroke-dasharray:none"
       d="M 240.13239,0.13229157 V 250.13232"
       id="path2658" /><path
       style="fill:none;stroke:#b3b3b3;stroke-width:0.132292;stroke-dasharray:none"
       d="m 232.03106,230.50482 17.96894,0"
       id="path2584-5-2"
       sodipodi:nodetypes="cc" /><path
       style="fill:none;stroke:#b3b3b3;stroke-width:0.132292;stroke-dasharray:none"
       d="m 230.1103,232.63799 0,17.36201"
       id="path2656-3"
       sodipodi:nodetypes="cc" /><path
       style="fill:none;stroke:#b3b3b3;stroke-width:0.13229167;stroke-dasharray:none"
       d="m 220.08821,238.08889 v 11.84944"
       id="path2656-3-5" /><path
       style="fill:none;stroke:#b3b3b3;stroke-width:0.132292;stroke-dasharray:none"
       d="m 210.06612,238.08889 v 11.84944"
       id="path2656-3-5-5" /><path
       style="fill:none;stroke:#b3b3b3;stroke-width:0.132292;stroke-dasharray:none"
       d="m 190.02194,238.08889 v 11.84944"
       id="path2656-3-5-5-3" /><path
       style="fill:none;stroke:#b3b3b3;stroke-width:0.132292;stroke-dasharray:none"
       d="m 179.99985,238.08889 v 11.84944"
       id="path2656-3-5-5-8" /><path
       style="fill:none;stroke:#b3b3b3;stroke-width:0.132292;stroke-dasharray:none"
       d="m 169.97776,231.7772 0,18.16113"
       id="path2656-3-5-5-34"
       sodipodi:nodetypes="cc" /><path
       style="fill:none;stroke:#b3b3b3;stroke-width:0.132292;stroke-dasharray:none"
       d="M 232.03106,210.24247 H 250"
       id="path2584-5-4"
       sodipodi:nodetypes="cc" /><path
       style="display:inline;fill:#d40000;fill-opacity:1;stroke:none;stroke-width:4.37741;stroke-linecap:round;stroke-linejoin:round;stroke-miterlimit:4;stroke-dasharray:none;stroke-dashoffset:0;stroke-opacity:1"
       d="m 228.28365,209.44551 -4.30475,0.005 -11.75324,17.31629 h 4.28892 z m -12.20622,0.005 -5.88086,8.64287 h 4.28948 l 5.85542,-8.63155 z m 9.94696,8.61914 -5.88085,8.64342 h 4.28892 l 5.85541,-8.63156 z"
       id="rect812"
       inkscape:connector-curvature="0"
       inkscape:label="VORON_LOGO"
       sodipodi:insensitive="true" /><path
       style="fill:#336799;fill-opacity:1;fill-rule:nonzero;stroke:none;stroke-width:0.0830104;stroke-linecap:butt;stroke-linejoin:miter;stroke-miterlimit:10;stroke-dasharray:none;stroke-dashoffset:0;stroke-opacity:1"
       d="m 171.34385,209.23628 v 1.59452 l 4.01771,4.10933 c 0.47213,-0.73694 1.09935,-1.36201 1.83791,-1.83159 l -1.21856,-1.27287 8.90977,-0.0773 2.39773,2.40195 -0.007,9.2728 -1.88475,-1.86951 c -0.4791,0.70518 -1.10258,1.30046 -1.82914,1.74643 l 3.59358,3.66573 2.72041,-7.8e-4 0.002,-13.87366 -3.78749,-3.86452 z m 0.008,2.73673 -0.002,11.1347 3.77632,3.86627 10.85793,-0.0101 -2.37763,-2.5952 h -7.33939 l -2.32039,-2.31665 v -7.4936 z m 9.06501,1.13976 c -2.80412,4e-5 -5.07729,2.27326 -5.07723,5.07738 3e-5,2.80407 2.27316,5.07721 5.07723,5.07724 2.80406,-3e-5 5.0772,-2.27316 5.07722,-5.07723 6e-5,-2.80412 -2.2731,-5.07735 -5.07722,-5.07739 z m 0,2.49468 c 1.4264,-2e-5 2.58274,1.1563 2.58271,2.5827 -6e-5,1.42636 -1.15638,2.5826 -2.58271,2.58256 -1.42635,4e-5 -2.58265,-1.1562 -2.58272,-2.58256 -3e-5,-1.4264 1.15632,-2.58272 2.58272,-2.5827 z"
       id="rect829"
       inkscape:connector-curvature="0"
       sodipodi:nodetypes="cccccccccccccccccccccccccccccccccc"
       inkscape:label="LDO_LOGO"
       sodipodi:insensitive="true" /><path
       id="rect5300"
       style="opacity:0.8;fill:#b3b3b3;stroke:#b3b3b3;stroke-width:0.103349;stroke-linecap:round;stroke-dasharray:none"
       d="m 195.68153,215.53528 2.62225,2.62226 -2.62253,2.62254 1.84008,1.84008 2.62254,-2.62254 2.62254,2.62255 1.84009,-1.84009 -2.62254,-2.62255 2.62254,-2.62253 -1.84009,-1.84009 -2.62254,2.62254 -2.62225,-2.62226 z"
       inkscape:label="CROSS" /><g
       aria-label="250x250mm"
       id="text12476"
       style="font-size:7.05556px;line-height:1.25;font-family:Play;-inkscape-font-specification:'Play, Normal';letter-spacing:0px;word-spacing:0px;fill:#b3b3b3;stroke-width:0.264583"><path
         d="m 182.73038,234.40919 q 0,-0.19756 0.0635,-0.36689 0.0706,-0.17639 0.17639,-0.29634 0.0847,-0.0988 0.254,-0.21166 0.17639,-0.11995 0.33161,-0.19756 0.13406,-0.0706 0.35278,-0.16228 l 0.762,-0.33866 q 0.45156,-0.19756 0.45156,-0.61384 v -0.62794 q 0,-0.32456 -0.19756,-0.43039 -0.19755,-0.11289 -0.69144,-0.11289 -0.48684,0 -1.34056,0.14817 v -0.49389 q 0.71261,-0.13406 1.47461,-0.13406 0.762,0 1.10067,0.23283 0.33867,0.22578 0.33867,0.762 v 0.74789 q 0,0.254 -0.0847,0.42334 -0.0847,0.16228 -0.27517,0.29633 -0.18344,0.127 -0.54328,0.28928 l -1.05833,0.48683 q -0.46567,0.21167 -0.46567,0.62089 v 0.30339 h 2.42712 v 0.49389 h -3.07623 z"
         id="path13073" /><path
         d="m 188.27605,235.29819 q -0.5715,0 -1.34761,-0.127 v -0.508 q 0.81844,0.16933 1.36878,0.16933 0.43039,0 0.62794,-0.11995 0.20461,-0.127 0.20461,-0.40922 v -0.91017 q 0,-0.29633 -0.254,-0.381 -0.11994,-0.0353 -0.22577,-0.0423 -0.0988,-0.0141 -0.26106,-0.0141 h -1.35467 v -2.30717 h 2.63878 v 0.47978 h -2.00378 v 1.38995 h 1.05834 q 0.28222,0 0.50094,0.0705 0.21872,0.0635 0.38806,0.22578 0.17639,0.17639 0.17639,0.45861 v 1.04422 q 0,0.24695 -0.0917,0.43745 -0.0847,0.18344 -0.23283,0.28928 -0.13405,0.0988 -0.34572,0.16227 -0.20461,0.0635 -0.40922,0.0776 -0.254,0.0141 -0.43745,0.0141 z"
         id="path13075" /><path
         d="m 192.44589,235.29819 q -0.31045,0 -0.508,-0.0212 -0.1905,-0.0212 -0.40923,-0.0847 -0.23283,-0.0635 -0.37394,-0.18344 -0.13406,-0.127 -0.22578,-0.35278 -0.0917,-0.21167 -0.0917,-0.52917 v -2.31422 q 0,-0.3175 0.0917,-0.55739 0.0917,-0.23989 0.23989,-0.381 0.13406,-0.11994 0.35278,-0.1905 0.22578,-0.0776 0.45155,-0.0988 0.254,-0.0141 0.47273,-0.0141 0.31044,0 0.50094,0.0212 0.19756,0.0212 0.41628,0.0847 0.23283,0.0706 0.37394,0.19756 0.14817,0.127 0.23989,0.35983 0.0917,0.23284 0.0917,0.5715 v 2.32128 q 0,0.28928 -0.0917,0.51506 -0.0917,0.22578 -0.23989,0.35278 -0.14111,0.11994 -0.35983,0.19755 -0.21872,0.0706 -0.4445,0.0847 -0.19756,0.0212 -0.48683,0.0212 z m 0.0141,-0.41628 q 0.37394,0 0.57855,-0.0494 0.20461,-0.0564 0.29634,-0.21167 0.0917,-0.15522 0.0917,-0.45861 v -2.39889 q 0,-0.33161 -0.0988,-0.49389 -0.0917,-0.16933 -0.29633,-0.22578 -0.19756,-0.0564 -0.57856,-0.0564 -0.38805,0 -0.59266,0.0564 -0.19756,0.0565 -0.28928,0.22578 -0.0917,0.16228 -0.0917,0.49389 v 2.39889 q 0,0.30339 0.0917,0.45861 0.0988,0.15522 0.30339,0.21167 0.20461,0.0494 0.58561,0.0494 z"
         id="path13077" /><path
         d="m 195.83961,233.4708 -1.19944,-1.65806 h 0.6985 l 0.84666,1.24883 0.85373,-1.24883 h 0.6985 l -1.19945,1.65806 1.27,1.75683 h -0.6985 l -0.92428,-1.34761 -0.91722,1.34761 h -0.6985 z"
         id="path13079" /><path
         d="m 198.38667,234.40919 q 0,-0.19756 0.0635,-0.36689 0.0705,-0.17639 0.17639,-0.29634 0.0847,-0.0988 0.254,-0.21166 0.17639,-0.11995 0.33161,-0.19756 0.13405,-0.0706 0.35278,-0.16228 l 0.762,-0.33866 q 0.45155,-0.19756 0.45155,-0.61384 v -0.62794 q 0,-0.32456 -0.19755,-0.43039 -0.19756,-0.11289 -0.69145,-0.11289 -0.48683,0 -1.34055,0.14817 v -0.49389 q 0.71261,-0.13406 1.47461,-0.13406 0.762,0 1.10067,0.23283 0.33866,0.22578 0.33866,0.762 v 0.74789 q 0,0.254 -0.0847,0.42334 -0.0847,0.16228 -0.27517,0.29633 -0.18345,0.127 -0.54328,0.28928 l -1.05833,0.48683 q -0.46567,0.21167 -0.46567,0.62089 v 0.30339 h 2.42711 v 0.49389 h -3.07622 z"
         id="path13081" /><path
         d="m 203.93234,235.29819 q -0.5715,0 -1.34761,-0.127 v -0.508 q 0.81844,0.16933 1.36877,0.16933 0.43039,0 0.62795,-0.11995 0.20461,-0.127 0.20461,-0.40922 v -0.91017 q 0,-0.29633 -0.254,-0.381 -0.11994,-0.0353 -0.22578,-0.0423 -0.0988,-0.0141 -0.26105,-0.0141 h -1.35467 v -2.30717 h 2.63878 v 0.47978 h -2.00378 v 1.38995 h 1.05833 q 0.28223,0 0.50095,0.0705 0.21872,0.0635 0.38805,0.22578 0.17639,0.17639 0.17639,0.45861 v 1.04422 q 0,0.24695 -0.0917,0.43745 -0.0847,0.18344 -0.23283,0.28928 -0.13406,0.0988 -0.34573,0.16227 -0.20461,0.0635 -0.40922,0.0776 -0.254,0.0141 -0.43744,0.0141 z"
         id="path13083" /><path
         d="m 208.10217,235.29819 q -0.31044,0 -0.508,-0.0212 -0.1905,-0.0212 -0.40922,-0.0847 -0.23283,-0.0635 -0.37394,-0.18344 -0.13406,-0.127 -0.22578,-0.35278 -0.0917,-0.21167 -0.0917,-0.52917 v -2.31422 q 0,-0.3175 0.0917,-0.55739 0.0917,-0.23989 0.23989,-0.381 0.13405,-0.11994 0.35277,-0.1905 0.22578,-0.0776 0.45156,-0.0988 0.254,-0.0141 0.47272,-0.0141 0.31045,0 0.50095,0.0212 0.19755,0.0212 0.41628,0.0847 0.23283,0.0706 0.37394,0.19756 0.14817,0.127 0.23989,0.35983 0.0917,0.23284 0.0917,0.5715 v 2.32128 q 0,0.28928 -0.0917,0.51506 -0.0917,0.22578 -0.23989,0.35278 -0.14111,0.11994 -0.35983,0.19755 -0.21873,0.0706 -0.4445,0.0847 -0.19756,0.0212 -0.48684,0.0212 z m 0.0141,-0.41628 q 0.37395,0 0.57856,-0.0494 0.20461,-0.0564 0.29633,-0.21167 0.0917,-0.15522 0.0917,-0.45861 v -2.39889 q 0,-0.33161 -0.0988,-0.49389 -0.0917,-0.16933 -0.29634,-0.22578 -0.19755,-0.0564 -0.57855,-0.0564 -0.38806,0 -0.59267,0.0564 -0.19755,0.0565 -0.28928,0.22578 -0.0917,0.16228 -0.0917,0.49389 v 2.39889 q 0,0.30339 0.0917,0.45861 0.0988,0.15522 0.30339,0.21167 0.20461,0.0494 0.58561,0.0494 z"
         id="path13085" /><path
         d="m 210.70567,231.81274 h 0.635 v 0.41628 q 0.0988,-0.48684 1.15006,-0.48684 0.85372,0 1.06539,0.46567 0.0635,-0.22578 0.381,-0.34572 0.32456,-0.11995 0.79022,-0.11995 0.635,0 0.89606,0.23989 0.26106,0.23284 0.26106,0.74084 v 2.50472 h -0.63501 v -2.46239 q 0,-0.13406 -0.0212,-0.21872 -0.0212,-0.0847 -0.0847,-0.16934 -0.14111,-0.17638 -0.62794,-0.17638 -0.37395,0 -0.55739,0.0494 -0.18345,0.0494 -0.254,0.16934 -0.0635,0.11994 -0.0635,0.34572 v 2.46239 h -0.635 v -2.46239 q 0,-0.13406 -0.0212,-0.21872 -0.0212,-0.0847 -0.0847,-0.16934 -0.14111,-0.17638 -0.62089,-0.17638 -0.38805,0 -0.58561,0.0494 -0.19755,0.0494 -0.27516,0.16934 -0.0776,0.11289 -0.0776,0.34572 v 2.46239 h -0.635 z"
         id="path13087" /><path
         d="m 216.98512,231.81274 h 0.635 v 0.41628 q 0.0988,-0.48684 1.15005,-0.48684 0.85373,0 1.06539,0.46567 0.0635,-0.22578 0.381,-0.34572 0.32456,-0.11995 0.79023,-0.11995 0.635,0 0.89605,0.23989 0.26106,0.23284 0.26106,0.74084 v 2.50472 h -0.635 v -2.46239 q 0,-0.13406 -0.0212,-0.21872 -0.0212,-0.0847 -0.0847,-0.16934 -0.14111,-0.17638 -0.62794,-0.17638 -0.37394,0 -0.55739,0.0494 -0.18344,0.0494 -0.254,0.16934 -0.0635,0.11994 -0.0635,0.34572 v 2.46239 h -0.635 v -2.46239 q 0,-0.13406 -0.0212,-0.21872 -0.0212,-0.0847 -0.0847,-0.16934 -0.14111,-0.17638 -0.62089,-0.17638 -0.38806,0 -0.58561,0.0494 -0.19756,0.0494 -0.27517,0.16934 -0.0776,0.11289 -0.0776,0.34572 v 2.46239 h -0.635 z"
         id="path13089" /></g></g></svg>
