<?xml version="1.0" encoding="UTF-8" standalone="no"?>
<!-- Created with Inkscape (http://www.inkscape.org/) -->

<svg
   width="300mm"
   height="300mm"
   viewBox="0 0 300 300"
   version="1.1"
   id="svg5"
   xml:space="preserve"
   inkscape:version="1.2-beta (1b65182ce9, 2022-04-05)"
   sodipodi:docname="300_ldo_texture.svg"
   xmlns:inkscape="http://www.inkscape.org/namespaces/inkscape"
   xmlns:sodipodi="http://sodipodi.sourceforge.net/DTD/sodipodi-0.dtd"
   xmlns="http://www.w3.org/2000/svg"
   xmlns:svg="http://www.w3.org/2000/svg"><sodipodi:namedview
     id="namedview7"
     pagecolor="#ffffff"
     bordercolor="#666666"
     borderopacity="1.0"
     inkscape:pageshadow="2"
     inkscape:pageopacity="0.0"
     inkscape:pagecheckerboard="0"
     inkscape:deskcolor="#d1d1d1"
     inkscape:document-units="mm"
     showgrid="false"
     inkscape:zoom="0.37727624"
     inkscape:cx="-250.4796"
     inkscape:cy="479.75457"
     inkscape:window-width="1920"
     inkscape:window-height="1027"
     inkscape:window-x="1912"
     inkscape:window-y="-8"
     inkscape:window-maximized="1"
     inkscape:current-layer="layer1" /><defs
     id="defs2"><marker
       id="DistanceX"
       orient="auto"
       refX="0"
       refY="0"
       style="overflow:visible"><path
         d="M 3,-3 -3,3 M 0,-5 V 5"
         style="stroke:#000000;stroke-width:0.5"
         id="path184" /></marker><pattern
       id="Hatch"
       patternUnits="userSpaceOnUse"
       width="8"
       height="8"
       x="0"
       y="0"><path
         d="M8 4 l-4,4"
         stroke="#000000"
         stroke-width="0.25"
         linecap="square"
         id="path187" /><path
         d="M6 2 l-4,4"
         stroke="#000000"
         stroke-width="0.25"
         linecap="square"
         id="path189" /><path
         d="M4 0 l-4,4"
         stroke="#000000"
         stroke-width="0.25"
         linecap="square"
         id="path191" /></pattern><symbol
       id="*Model_Space" /><symbol
       id="*Paper_Space" /><symbol
       id="*Paper_Space0" /><marker
       id="DistanceX-8"
       orient="auto"
       refX="0"
       refY="0"
       style="overflow:visible"><path
         d="M 3,-3 -3,3 M 0,-5 V 5"
         style="stroke:#000000;stroke-width:0.5"
         id="path781" /></marker><pattern
       id="Hatch-2"
       patternUnits="userSpaceOnUse"
       width="8"
       height="8"
       x="0"
       y="0"><path
         d="M8 4 l-4,4"
         stroke="#000000"
         stroke-width="0.25"
         linecap="square"
         id="path784" /><path
         d="M6 2 l-4,4"
         stroke="#000000"
         stroke-width="0.25"
         linecap="square"
         id="path786" /><path
         d="M4 0 l-4,4"
         stroke="#000000"
         stroke-width="0.25"
         linecap="square"
         id="path788" /></pattern><symbol
       id="*Model_Space-9" /><symbol
       id="*Paper_Space-7" /><symbol
       id="*Paper_Space0-7" /><marker
       id="DistanceX-3"
       orient="auto"
       refX="0"
       refY="0"
       style="overflow:visible"><path
         d="M 3,-3 -3,3 M 0,-5 V 5"
         style="stroke:#000000;stroke-width:0.5"
         id="path2541" /></marker><pattern
       id="Hatch-3"
       patternUnits="userSpaceOnUse"
       width="8"
       height="8"
       x="0"
       y="0"><path
         d="M8 4 l-4,4"
         stroke="#000000"
         stroke-width="0.25"
         linecap="square"
         id="path2544" /><path
         d="M6 2 l-4,4"
         stroke="#000000"
         stroke-width="0.25"
         linecap="square"
         id="path2546" /><path
         d="M4 0 l-4,4"
         stroke="#000000"
         stroke-width="0.25"
         linecap="square"
         id="path2548" /></pattern><symbol
       id="*Model_Space-2" /><symbol
       id="*Paper_Space-1" /><symbol
       id="*Paper_Space0-8" /><pattern
       y="0"
       x="0"
       height="6"
       width="6"
       patternUnits="userSpaceOnUse"
       id="EMFhbasepattern" /><pattern
       y="0"
       x="0"
       height="6"
       width="6"
       patternUnits="userSpaceOnUse"
       id="EMFhbasepattern-6" /><pattern
       y="0"
       x="0"
       height="6"
       width="6"
       patternUnits="userSpaceOnUse"
       id="EMFhbasepattern-4" /><pattern
       y="0"
       x="0"
       height="6"
       width="6"
       patternUnits="userSpaceOnUse"
       id="EMFhbasepattern-6-1" /><marker
       id="DistanceX-6"
       orient="auto"
       refX="0.0"
       refY="0.0"
       style="overflow:visible"><path
         d="M 3,-3 L -3,3 M 0,-5 L  0,5"
         style="stroke:#000000; stroke-width:0.5"
         id="path5617" /></marker><pattern
       id="Hatch-6"
       patternUnits="userSpaceOnUse"
       width="8"
       height="8"
       x="0"
       y="0"><path
         d="M8 4 l-4,4"
         stroke="#000000"
         stroke-width="0.25"
         linecap="square"
         id="path5620" /><path
         d="M6 2 l-4,4"
         stroke="#000000"
         stroke-width="0.25"
         linecap="square"
         id="path5622" /><path
         d="M4 0 l-4,4"
         stroke="#000000"
         stroke-width="0.25"
         linecap="square"
         id="path5624" /></pattern><symbol
       id="*MODEL_SPACE" /><symbol
       id="*PAPER_SPACE" /><symbol
       id="*PAPER_SPACE0" /></defs><g
     inkscape:label="Layer 1"
     inkscape:groupmode="layer"
     id="layer1"><g
       id="g6369"
       style="stroke:#b3b3b3"><path
         style="fill:none;stroke:#b3b3b3;stroke-width:0.66145833;stroke-dasharray:none"
         d="M 0.13229166,300.13238 H 300.13275"
         id="path5632" /><path
         style="fill:none;stroke:#b3b3b3;stroke-width:0.66145833;stroke-dasharray:none"
         d="M 300.13275,300.13238 V 0.13229165"
         id="path5634" /><path
         style="fill:none;stroke:#b3b3b3;stroke-width:0.66145833;stroke-dasharray:none"
         d="M 300.13275,0.13229165 H 0.13229166"
         id="path5636" /><path
         style="fill:none;stroke:#b3b3b3;stroke-width:0.66145833;stroke-dasharray:none"
         d="M 0.13229166,0.13229165 V 300.13238"
         id="path5638" /><path
         style="fill:none;stroke:#b3b3b3;stroke-width:0.66145833;stroke-dasharray:none"
         d="M 0.13229166,250.13221 H 300.13275"
         id="path5640" /><path
         style="fill:none;stroke:#b3b3b3;stroke-width:0.66145833;stroke-dasharray:none"
         d="M 0.13229166,200.13231 H 300.13275"
         id="path5642" /><path
         style="fill:none;stroke:#b3b3b3;stroke-width:0.66145833;stroke-dasharray:none"
         d="M 0.13229166,150.13241 H 300.13275"
         id="path5644" /><path
         style="fill:none;stroke:#b3b3b3;stroke-width:0.66145833;stroke-dasharray:none"
         d="M 0.13229166,100.13225 H 300.13275"
         id="path5646" /><path
         style="fill:none;stroke:#b3b3b3;stroke-width:0.66145833;stroke-dasharray:none"
         d="M 50.132191,0.13229165 V 300.13238"
         id="path5648" /><path
         style="fill:none;stroke:#b3b3b3;stroke-width:0.66145833;stroke-dasharray:none"
         d="M 100.13235,0.13229165 V 300.13238"
         id="path5650" /><path
         style="fill:none;stroke:#b3b3b3;stroke-width:0.66145833;stroke-dasharray:none"
         d="M 150.13225,0.13229165 V 300.13238"
         id="path5652" /><path
         style="fill:none;stroke:#b3b3b3;stroke-width:0.66145833;stroke-dasharray:none"
         d="M 300.13275,50.13235 H 0.13229166"
         id="path5738" /><path
         style="fill:none;stroke:#b3b3b3;stroke-width:0.661458;stroke-dasharray:none"
         d="m 250.13232,261.39256 0,-261.26026835"
         id="path5736"
         sodipodi:nodetypes="cc" /><path
         style="fill:none;stroke:#b3b3b3;stroke-width:0.66145833;stroke-dasharray:none"
         d="M 200.13242,0.13229165 V 300.13238"
         id="path5654" /><path
         style="fill:none;stroke:#b3b3b3;stroke-width:0.66145833;stroke-dasharray:none"
         d="m 250.12914,288.31684 v 11.81554"
         id="path5766-4-2"
         sodipodi:nodetypes="cc" /></g><path
       style="fill:none;stroke:#b3b3b3;stroke-width:0.13229167;stroke-dasharray:none"
       d="M 0.13229166,290.13113 H 300.13275"
       id="path5656" /><path
       style="fill:none;stroke:#b3b3b3;stroke-width:0.132292;stroke-dasharray:none"
       d="m 0.13229166,280.13252 218.65055834,0.031"
       id="path5658"
       sodipodi:nodetypes="cc" /><path
       style="fill:none;stroke:#b3b3b3;stroke-width:0.132292;stroke-dasharray:none"
       d="m 0.13229166,270.13127 217.72075834,0"
       id="path5660"
       sodipodi:nodetypes="cc" /><path
       style="fill:none;stroke:#b3b3b3;stroke-width:0.132292;stroke-dasharray:none"
       d="m 0.13229166,260.1324 217.72075834,0"
       id="path5662"
       sodipodi:nodetypes="cc" /><path
       style="fill:none;stroke:#b3b3b3;stroke-width:0.13229167;stroke-dasharray:none"
       d="M 0.13229166,240.13228 H 300.13275"
       id="path5664" /><path
       style="fill:none;stroke:#b3b3b3;stroke-width:0.13229167;stroke-dasharray:none"
       d="M 0.13229166,230.13236 H 300.13275"
       id="path5666" /><path
       style="fill:none;stroke:#b3b3b3;stroke-width:0.13229167;stroke-dasharray:none"
       d="M 0.13229166,220.13217 H 300.13275"
       id="path5668" /><path
       style="fill:none;stroke:#b3b3b3;stroke-width:0.13229167;stroke-dasharray:none"
       d="M 0.13229166,210.13224 H 300.13275"
       id="path5670" /><path
       style="fill:none;stroke:#b3b3b3;stroke-width:0.13229167;stroke-dasharray:none"
       d="M 0.13229166,190.13239 H 300.13275"
       id="path5672" /><path
       style="fill:none;stroke:#b3b3b3;stroke-width:0.13229167;stroke-dasharray:none"
       d="M 0.13229166,180.13219 H 300.13275"
       id="path5674" /><path
       style="fill:none;stroke:#b3b3b3;stroke-width:0.13229167;stroke-dasharray:none"
       d="M 0.13229166,170.13227 H 300.13275"
       id="path5676" /><path
       style="fill:none;stroke:#b3b3b3;stroke-width:0.13229167;stroke-dasharray:none"
       d="M 0.13229166,160.13234 H 300.13275"
       id="path5678" /><path
       style="fill:none;stroke:#b3b3b3;stroke-width:0.13229167;stroke-dasharray:none"
       d="M 0.13229166,140.13222 H 300.13275"
       id="path5680" /><path
       style="fill:none;stroke:#b3b3b3;stroke-width:0.13229167;stroke-dasharray:none"
       d="M 0.13229166,130.13229 H 300.13275"
       id="path5682" /><path
       style="fill:none;stroke:#b3b3b3;stroke-width:0.13229167;stroke-dasharray:none"
       d="M 0.13229166,120.13237 H 300.13275"
       id="path5684" /><path
       style="fill:none;stroke:#b3b3b3;stroke-width:0.13229167;stroke-dasharray:none"
       d="M 0.13229166,110.13218 H 300.13275"
       id="path5686" /><path
       style="fill:none;stroke:#b3b3b3;stroke-width:0.13229167;stroke-dasharray:none"
       d="M 0.13229166,90.132322 H 300.13275"
       id="path5688" /><path
       style="fill:none;stroke:#b3b3b3;stroke-width:0.13229167;stroke-dasharray:none"
       d="M 0.13229166,80.132395 H 300.13275"
       id="path5690" /><path
       style="fill:none;stroke:#b3b3b3;stroke-width:0.13229167;stroke-dasharray:none"
       d="M 0.13229166,70.132204 H 300.13275"
       id="path5692" /><path
       style="fill:none;stroke:#b3b3b3;stroke-width:0.13229167;stroke-dasharray:none"
       d="M 0.13229166,60.132277 H 300.13275"
       id="path5694" /><path
       style="fill:none;stroke:#b3b3b3;stroke-width:0.13229167;stroke-dasharray:none"
       d="M 10.132298,0.13229165 V 300.13238"
       id="path5696" /><path
       style="fill:none;stroke:#b3b3b3;stroke-width:0.13229167;stroke-dasharray:none"
       d="M 40.132264,0.13229165 V 300.13238"
       id="path5702" /><path
       style="fill:none;stroke:#b3b3b3;stroke-width:0.13229167;stroke-dasharray:none"
       d="M 60.132383,0.13229165 V 300.13238"
       id="path5704" /><path
       style="fill:none;stroke:#b3b3b3;stroke-width:0.13229167;stroke-dasharray:none"
       d="M 70.13231,0.13229165 V 300.13238"
       id="path5706" /><path
       style="fill:none;stroke:#b3b3b3;stroke-width:0.13229167;stroke-dasharray:none"
       d="M 80.132236,0.13229165 V 300.13238"
       id="path5708" /><path
       style="fill:none;stroke:#b3b3b3;stroke-width:0.13229167;stroke-dasharray:none"
       d="M 90.132163,0.13229165 V 300.13238"
       id="path5710" /><path
       style="fill:none;stroke:#b3b3b3;stroke-width:0.13229167;stroke-dasharray:none"
       d="M 110.13228,0.13229165 V 300.13238"
       id="path5712" /><path
       style="fill:none;stroke:#b3b3b3;stroke-width:0.13229167;stroke-dasharray:none"
       d="M 120.13221,0.13229165 V 300.13238"
       id="path5714" /><path
       style="fill:none;stroke:#b3b3b3;stroke-width:0.13229167;stroke-dasharray:none"
       d="M 130.1324,0.13229165 V 300.13238"
       id="path5716" /><path
       style="fill:none;stroke:#b3b3b3;stroke-width:0.13229167;stroke-dasharray:none"
       d="M 140.13233,0.13229165 V 300.13238"
       id="path5718" /><path
       style="fill:none;stroke:#b3b3b3;stroke-width:0.13229167;stroke-dasharray:none"
       d="M 160.13218,0.13229165 V 300.13238"
       id="path5720" /><path
       style="fill:none;stroke:#b3b3b3;stroke-width:0.13229167;stroke-dasharray:none"
       d="M 170.13237,0.13229165 V 300.13238"
       id="path5722" /><path
       style="fill:none;stroke:#b3b3b3;stroke-width:0.13229167;stroke-dasharray:none"
       d="M 180.1323,0.13229165 V 300.13238"
       id="path5724" /><path
       style="fill:none;stroke:#b3b3b3;stroke-width:0.13229167;stroke-dasharray:none"
       d="M 190.13223,0.13229165 V 300.13238"
       id="path5726" /><path
       style="fill:none;stroke:#b3b3b3;stroke-width:0.13229167;stroke-dasharray:none"
       d="M 210.13235,0.13229165 V 300.13238"
       id="path5728" /><path
       style="fill:none;stroke:#b3b3b3;stroke-width:0.132292;stroke-dasharray:none"
       d="M 220.13227,0.13229165 V 258.22978"
       id="path5730"
       sodipodi:nodetypes="cc" /><path
       style="fill:none;stroke:#b3b3b3;stroke-width:0.132292;stroke-dasharray:none"
       d="m 230.1322,0.13229165 0,258.09748835"
       id="path5732"
       sodipodi:nodetypes="cc" /><path
       style="fill:none;stroke:#b3b3b3;stroke-width:0.132292;stroke-dasharray:none"
       d="M 240.13239,0.13229165 V 258.22978"
       id="path5734"
       sodipodi:nodetypes="cc" /><path
       style="fill:none;stroke:#b3b3b3;stroke-width:0.13229167;stroke-dasharray:none"
       d="M 0.13229166,40.132423 H 300.13275"
       id="path5740" /><path
       style="fill:none;stroke:#b3b3b3;stroke-width:0.13229167;stroke-dasharray:none"
       d="M 0.13229166,10.132298 H 300.13275"
       id="path5746" /><path
       style="fill:none;stroke:#b3b3b3;stroke-width:0.132292;stroke-dasharray:none"
       d="M 260.13224,0.13229165 260.00827,258.22978"
       id="path5748"
       sodipodi:nodetypes="cc" /><path
       style="fill:none;stroke:#b3b3b3;stroke-width:0.132292;stroke-dasharray:none"
       d="M 270.13164,0.13229165 V 258.22981"
       id="path5750"
       sodipodi:nodetypes="cc" /><path
       style="fill:none;stroke:#b3b3b3;stroke-width:0.132292;stroke-dasharray:none"
       d="M 280.13289,0.13229165 280.08906,258.22981"
       id="path5752"
       sodipodi:nodetypes="cc" /><path
       style="fill:none;stroke:#b3b3b3;stroke-width:0.13229167;stroke-dasharray:none"
       d="M 290.1315,0.13229165 V 300.13238"
       id="path5754" /><path
       style="fill:none;stroke:#b3b3b3;stroke-width:0.132292;stroke-dasharray:none"
       d="m 280.13289,281.83637 v 18.29601"
       id="path5764"
       sodipodi:nodetypes="cc" /><path
       style="fill:none;stroke:#b3b3b3;stroke-width:0.132292;stroke-dasharray:none"
       d="m 270.13164,288.31684 0,11.81554"
       id="path5766"
       sodipodi:nodetypes="cc" /><path
       style="fill:none;stroke:#b3b3b3;stroke-width:0.132292;stroke-dasharray:none"
       d="m 260.13039,288.31684 v 11.81554"
       id="path5766-4"
       sodipodi:nodetypes="cc" /><path
       style="fill:none;stroke:#b3b3b3;stroke-width:0.132292;stroke-dasharray:none"
       d="m 281.55232,280.13252 18.58043,0"
       id="path5768"
       sodipodi:nodetypes="cc" /><path
       style="fill:none;stroke:#b3b3b3;stroke-width:0.132292;stroke-dasharray:none"
       d="m 284.19443,270.1751 15.93832,-0.0438"
       id="path5770"
       sodipodi:nodetypes="cc" /><path
       style="fill:none;stroke:#b3b3b3;stroke-width:0.132292;stroke-dasharray:none"
       d="m 0.13229166,20.132304 300.00045834,0"
       id="path5772"
       sodipodi:nodetypes="cc" /><path
       style="fill:none;stroke:#b3b3b3;stroke-width:0.132292;stroke-dasharray:none"
       d="m 0.13229166,30.132231 300.00045834,0"
       id="path5774"
       sodipodi:nodetypes="cc" /><path
       style="fill:none;stroke:#b3b3b3;stroke-width:0.132292;stroke-dasharray:none"
       d="m 30.132337,0.13229165 0,300.00008835"
       id="path5776"
       sodipodi:nodetypes="cc" /><path
       style="fill:none;stroke:#b3b3b3;stroke-width:0.132292;stroke-dasharray:none"
       d="m 20.132304,0.13229165 0,300.00008835"
       id="path5778"
       sodipodi:nodetypes="cc" /><path
       style="fill:none;stroke:#b3b3b3;stroke-width:0.132292;stroke-dasharray:none"
       d="m 284.19443,260.13214 15.93832,0"
       id="path5770-3"
       sodipodi:nodetypes="cc" /><path
       style="fill:none;stroke:#b3b3b3;stroke-width:0.132292;stroke-dasharray:none"
       d="m 240.12789,288.31684 v 11.81554"
       id="path5766-4-2-3"
       sodipodi:nodetypes="cc" /><path
       style="fill:none;stroke:#b3b3b3;stroke-width:0.132292;stroke-dasharray:none"
       d="m 230.12664,288.31684 v 11.81554"
       id="path5766-4-2-1"
       sodipodi:nodetypes="cc" /><path
       style="fill:none;stroke:#b3b3b3;stroke-width:0.132292;stroke-dasharray:none"
       d="m 220.12539,281.87023 0,18.26215"
       id="path5766-4-2-12"
       sodipodi:nodetypes="cc" /><g
       aria-label="300x300mm"
       id="text11189"
       style="font-size:7.05556px;line-height:1.25;font-family:Play;-inkscape-font-specification:'Play, Normal';letter-spacing:0px;word-spacing:0px;fill:#b3b3b3;stroke-width:0.264583"><path
         d="m 232.35059,286.37762 q -0.59266,0 -1.3335,-0.13405 v -0.508 q 0.83962,0.17639 1.40406,0.17639 0.93839,0 0.93839,-0.52917 v -0.78317 q 0,-0.28928 -0.31044,-0.381 -0.14817,-0.0353 -0.26812,-0.0423 -0.11288,-0.0141 -0.29633,-0.0141 h -0.88194 v -0.43745 h 0.762 q 0.18344,0 0.29633,-0.007 0.11289,-0.0141 0.26106,-0.0564 0.15522,-0.0353 0.23988,-0.13405 0.0847,-0.0988 0.0847,-0.254 v -0.81845 q 0,-0.35983 -0.84667,-0.35983 -0.56444,0 -1.29116,0.11289 v -0.48684 q 0.60677,-0.0635 1.28411,-0.0635 0.78317,0 1.13594,0.17639 0.35984,0.16934 0.35984,0.58561 v 0.88195 q 0,0.21872 -0.17639,0.36689 -0.17639,0.14111 -0.45156,0.18344 v 0.0282 q 0.16934,0.0282 0.27517,0.0635 0.11289,0.0282 0.23989,0.0917 0.24694,0.127 0.24694,0.4445 v 0.91722 q 0,0.23989 -0.10583,0.43039 -0.10583,0.1905 -0.26811,0.29633 -0.14111,0.0988 -0.37395,0.16228 -0.23283,0.0564 -0.45861,0.0776 -0.26811,0.0141 -0.46567,0.0141 z"
         id="path12010" /><path
         d="m 236.6051,286.37762 q -0.31045,0 -0.508,-0.0212 -0.1905,-0.0212 -0.40923,-0.0847 -0.23283,-0.0635 -0.37394,-0.18344 -0.13406,-0.127 -0.22578,-0.35278 -0.0917,-0.21167 -0.0917,-0.52917 v -2.31422 q 0,-0.3175 0.0917,-0.55739 0.0917,-0.23989 0.23989,-0.381 0.13406,-0.11995 0.35278,-0.1905 0.22578,-0.0776 0.45155,-0.0988 0.254,-0.0141 0.47273,-0.0141 0.31044,0 0.50094,0.0212 0.19756,0.0212 0.41628,0.0847 0.23283,0.0706 0.37394,0.19756 0.14817,0.127 0.23989,0.35983 0.0917,0.23283 0.0917,0.5715 v 2.32128 q 0,0.28928 -0.0917,0.51506 -0.0917,0.22577 -0.23989,0.35277 -0.14111,0.11995 -0.35983,0.19756 -0.21872,0.0706 -0.4445,0.0847 -0.19756,0.0212 -0.48683,0.0212 z m 0.0141,-0.41627 q 0.37394,0 0.57855,-0.0494 0.20462,-0.0565 0.29634,-0.21167 0.0917,-0.15522 0.0917,-0.45861 v -2.39889 q 0,-0.33161 -0.0988,-0.49389 -0.0917,-0.16933 -0.29633,-0.22578 -0.19756,-0.0564 -0.57856,-0.0564 -0.38805,0 -0.59266,0.0564 -0.19756,0.0565 -0.28928,0.22578 -0.0917,0.16228 -0.0917,0.49389 v 2.39889 q 0,0.30339 0.0917,0.45861 0.0988,0.15522 0.30339,0.21167 0.20461,0.0494 0.58561,0.0494 z"
         id="path12012" /><path
         d="m 240.69732,286.37762 q -0.31044,0 -0.508,-0.0212 -0.1905,-0.0212 -0.40922,-0.0847 -0.23284,-0.0635 -0.37395,-0.18344 -0.13405,-0.127 -0.22577,-0.35278 -0.0917,-0.21167 -0.0917,-0.52917 v -2.31422 q 0,-0.3175 0.0917,-0.55739 0.0917,-0.23989 0.23988,-0.381 0.13406,-0.11995 0.35278,-0.1905 0.22578,-0.0776 0.45156,-0.0988 0.254,-0.0141 0.47272,-0.0141 0.31045,0 0.50095,0.0212 0.19755,0.0212 0.41627,0.0847 0.23284,0.0706 0.37395,0.19756 0.14817,0.127 0.23989,0.35983 0.0917,0.23283 0.0917,0.5715 v 2.32128 q 0,0.28928 -0.0917,0.51506 -0.0917,0.22577 -0.23989,0.35277 -0.14111,0.11995 -0.35984,0.19756 -0.21872,0.0706 -0.4445,0.0847 -0.19755,0.0212 -0.48683,0.0212 z m 0.0141,-0.41627 q 0.37395,0 0.57856,-0.0494 0.20461,-0.0565 0.29633,-0.21167 0.0917,-0.15522 0.0917,-0.45861 v -2.39889 q 0,-0.33161 -0.0988,-0.49389 -0.0917,-0.16933 -0.29634,-0.22578 -0.19755,-0.0564 -0.57855,-0.0564 -0.38806,0 -0.59267,0.0564 -0.19756,0.0565 -0.28928,0.22578 -0.0917,0.16228 -0.0917,0.49389 v 2.39889 q 0,0.30339 0.0917,0.45861 0.0988,0.15522 0.30339,0.21167 0.20461,0.0494 0.58561,0.0494 z"
         id="path12014" /><path
         d="m 244.09104,284.55023 -1.19944,-1.65805 h 0.6985 l 0.84667,1.24883 0.85372,-1.24883 h 0.6985 l -1.19944,1.65805 1.27,1.75684 h -0.6985 l -0.92428,-1.34761 -0.91723,1.34761 h -0.6985 z"
         id="path12016" /><path
         d="m 248.00688,286.37762 q -0.59267,0 -1.3335,-0.13405 v -0.508 q 0.83961,0.17639 1.40406,0.17639 0.93839,0 0.93839,-0.52917 v -0.78317 q 0,-0.28928 -0.31045,-0.381 -0.14817,-0.0353 -0.26811,-0.0423 -0.11289,-0.0141 -0.29633,-0.0141 h -0.88195 v -0.43745 h 0.762 q 0.18345,0 0.29634,-0.007 0.11288,-0.0141 0.26105,-0.0564 0.15522,-0.0353 0.23989,-0.13405 0.0847,-0.0988 0.0847,-0.254 v -0.81845 q 0,-0.35983 -0.84667,-0.35983 -0.56444,0 -1.29117,0.11289 v -0.48684 q 0.60678,-0.0635 1.28411,-0.0635 0.78317,0 1.13595,0.17639 0.35983,0.16934 0.35983,0.58561 v 0.88195 q 0,0.21872 -0.17639,0.36689 -0.17638,0.14111 -0.45155,0.18344 v 0.0282 q 0.16933,0.0282 0.27517,0.0635 0.11288,0.0282 0.23988,0.0917 0.24695,0.127 0.24695,0.4445 v 0.91722 q 0,0.23989 -0.10583,0.43039 -0.10584,0.1905 -0.26812,0.29633 -0.14111,0.0988 -0.37394,0.16228 -0.23283,0.0564 -0.45861,0.0776 -0.26811,0.0141 -0.46567,0.0141 z"
         id="path12018" /><path
         d="m 252.26138,286.37762 q -0.31044,0 -0.508,-0.0212 -0.1905,-0.0212 -0.40922,-0.0847 -0.23283,-0.0635 -0.37394,-0.18344 -0.13406,-0.127 -0.22578,-0.35278 -0.0917,-0.21167 -0.0917,-0.52917 v -2.31422 q 0,-0.3175 0.0917,-0.55739 0.0917,-0.23989 0.23989,-0.381 0.13405,-0.11995 0.35277,-0.1905 0.22578,-0.0776 0.45156,-0.0988 0.254,-0.0141 0.47272,-0.0141 0.31045,0 0.50095,0.0212 0.19755,0.0212 0.41628,0.0847 0.23283,0.0706 0.37394,0.19756 0.14817,0.127 0.23989,0.35983 0.0917,0.23283 0.0917,0.5715 v 2.32128 q 0,0.28928 -0.0917,0.51506 -0.0917,0.22577 -0.23989,0.35277 -0.14111,0.11995 -0.35983,0.19756 -0.21873,0.0706 -0.4445,0.0847 -0.19756,0.0212 -0.48684,0.0212 z m 0.0141,-0.41627 q 0.37395,0 0.57856,-0.0494 0.20461,-0.0565 0.29633,-0.21167 0.0917,-0.15522 0.0917,-0.45861 v -2.39889 q 0,-0.33161 -0.0988,-0.49389 -0.0917,-0.16933 -0.29634,-0.22578 -0.19755,-0.0564 -0.57855,-0.0564 -0.38806,0 -0.59267,0.0564 -0.19755,0.0565 -0.28928,0.22578 -0.0917,0.16228 -0.0917,0.49389 v 2.39889 q 0,0.30339 0.0917,0.45861 0.0988,0.15522 0.30339,0.21167 0.20461,0.0494 0.58561,0.0494 z"
         id="path12020" /><path
         d="m 256.35361,286.37762 q -0.31045,0 -0.508,-0.0212 -0.1905,-0.0212 -0.40923,-0.0847 -0.23283,-0.0635 -0.37394,-0.18344 -0.13406,-0.127 -0.22578,-0.35278 -0.0917,-0.21167 -0.0917,-0.52917 v -2.31422 q 0,-0.3175 0.0917,-0.55739 0.0917,-0.23989 0.23989,-0.381 0.13406,-0.11995 0.35278,-0.1905 0.22578,-0.0776 0.45155,-0.0988 0.254,-0.0141 0.47273,-0.0141 0.31044,0 0.50094,0.0212 0.19756,0.0212 0.41628,0.0847 0.23283,0.0706 0.37394,0.19756 0.14817,0.127 0.23989,0.35983 0.0917,0.23283 0.0917,0.5715 v 2.32128 q 0,0.28928 -0.0917,0.51506 -0.0917,0.22577 -0.23989,0.35277 -0.14111,0.11995 -0.35983,0.19756 -0.21872,0.0706 -0.4445,0.0847 -0.19755,0.0212 -0.48683,0.0212 z m 0.0141,-0.41627 q 0.37394,0 0.57855,-0.0494 0.20462,-0.0565 0.29634,-0.21167 0.0917,-0.15522 0.0917,-0.45861 v -2.39889 q 0,-0.33161 -0.0988,-0.49389 -0.0917,-0.16933 -0.29633,-0.22578 -0.19756,-0.0564 -0.57856,-0.0564 -0.38805,0 -0.59266,0.0564 -0.19756,0.0565 -0.28928,0.22578 -0.0917,0.16228 -0.0917,0.49389 v 2.39889 q 0,0.30339 0.0917,0.45861 0.0988,0.15522 0.30339,0.21167 0.20461,0.0494 0.58561,0.0494 z"
         id="path12022" /><path
         d="m 258.95711,282.89218 h 0.635 v 0.41627 q 0.0988,-0.48683 1.15005,-0.48683 0.85373,0 1.06539,0.46567 0.0635,-0.22578 0.381,-0.34572 0.32456,-0.11995 0.79023,-0.11995 0.635,0 0.89605,0.23989 0.26106,0.23283 0.26106,0.74083 v 2.50473 h -0.635 v -2.46239 q 0,-0.13406 -0.0212,-0.21872 -0.0212,-0.0847 -0.0847,-0.16934 -0.14112,-0.17639 -0.62795,-0.17639 -0.37394,0 -0.55739,0.0494 -0.18344,0.0494 -0.254,0.16933 -0.0635,0.11995 -0.0635,0.34573 v 2.46239 h -0.635 v -2.46239 q 0,-0.13406 -0.0212,-0.21872 -0.0212,-0.0847 -0.0847,-0.16934 -0.14111,-0.17639 -0.62089,-0.17639 -0.38806,0 -0.58561,0.0494 -0.19756,0.0494 -0.27517,0.16933 -0.0776,0.11289 -0.0776,0.34573 v 2.46239 h -0.635 z"
         id="path12024" /><path
         d="m 265.23655,282.89218 h 0.635 v 0.41627 q 0.0988,-0.48683 1.15006,-0.48683 0.85372,0 1.06539,0.46567 0.0635,-0.22578 0.381,-0.34572 0.32455,-0.11995 0.79022,-0.11995 0.635,0 0.89606,0.23989 0.26105,0.23283 0.26105,0.74083 v 2.50473 h -0.635 v -2.46239 q 0,-0.13406 -0.0212,-0.21872 -0.0212,-0.0847 -0.0847,-0.16934 -0.14111,-0.17639 -0.62795,-0.17639 -0.37394,0 -0.55738,0.0494 -0.18345,0.0494 -0.25401,0.16933 -0.0635,0.11995 -0.0635,0.34573 v 2.46239 h -0.635 v -2.46239 q 0,-0.13406 -0.0212,-0.21872 -0.0212,-0.0847 -0.0847,-0.16934 -0.14111,-0.17639 -0.62089,-0.17639 -0.38805,0 -0.58561,0.0494 -0.19756,0.0494 -0.27517,0.16933 -0.0776,0.11289 -0.0776,0.34573 v 2.46239 h -0.635 z"
         id="path12026" /></g><path
       style="display:inline;fill:#d40000;fill-opacity:1;stroke:none;stroke-width:4.37741;stroke-linecap:round;stroke-linejoin:round;stroke-miterlimit:4;stroke-dasharray:none;stroke-dashoffset:0;stroke-opacity:1"
       d="m 278.45676,260.27522 -4.30475,0.005 -11.75324,17.31629 h 4.28892 z m -12.20622,0.005 -5.88086,8.64287 h 4.28948 l 5.85542,-8.63155 z m 9.94696,8.61913 -5.88085,8.64343 h 4.28892 l 5.85541,-8.63155 z"
       id="rect812"
       inkscape:connector-curvature="0"
       inkscape:label="VORON_LOGO"
       sodipodi:insensitive="true" /><path
       style="fill:#336799;fill-opacity:1;fill-rule:nonzero;stroke:none;stroke-width:0.0830104;stroke-linecap:butt;stroke-linejoin:miter;stroke-miterlimit:10;stroke-dasharray:none;stroke-dashoffset:0;stroke-opacity:1"
       d="m 221.51696,260.06599 v 1.59453 l 4.01771,4.10932 c 0.47213,-0.73694 1.09935,-1.362 1.83791,-1.83159 l -1.21856,-1.27286 8.90977,-0.0773 2.39773,2.40194 -0.007,9.27281 -1.88475,-1.86951 c -0.4791,0.70518 -1.10258,1.30046 -1.82914,1.74643 l 3.59358,3.66573 2.72041,-7.9e-4 0.002,-13.87365 -3.78749,-3.86452 z m 0.008,2.73674 -0.002,11.13468 3.77632,3.86627 10.85793,-0.0101 -2.37763,-2.5952 h -7.33939 l -2.32039,-2.31664 v -7.49361 z m 9.06501,1.13975 c -2.80412,4e-5 -5.07729,2.27327 -5.07723,5.07739 3e-5,2.80407 2.27316,5.0772 5.07723,5.07723 2.80406,-3e-5 5.0772,-2.27317 5.07722,-5.07723 6e-5,-2.80412 -2.2731,-5.07735 -5.07722,-5.07739 z m 0,2.49468 c 1.4264,-3e-5 2.58274,1.15631 2.58271,2.58271 -6e-5,1.42635 -1.15638,2.58259 -2.58271,2.58256 -1.42635,3e-5 -2.58265,-1.15621 -2.58272,-2.58256 -3e-5,-1.4264 1.15632,-2.58274 2.58272,-2.58271 z"
       id="rect829"
       inkscape:connector-curvature="0"
       sodipodi:nodetypes="cccccccccccccccccccccccccccccccccc"
       inkscape:label="LDO_LOGO"
       sodipodi:insensitive="true" /><path
       id="rect5300"
       style="opacity:0.8;fill:#b3b3b3;stroke:#b3b3b3;stroke-width:0.103349;stroke-linecap:round;stroke-dasharray:none"
       d="m 245.85464,266.36499 2.62225,2.62226 -2.62253,2.62254 1.84008,1.84008 2.62254,-2.62254 2.62254,2.62255 1.84009,-1.84009 -2.62254,-2.62255 2.62254,-2.62252 -1.84009,-1.8401 -2.62254,2.62255 -2.62225,-2.62226 z"
       inkscape:label="CROSS" /></g></svg>
