<?xml version="1.0" encoding="UTF-8" standalone="no"?>
<!-- Created with Inkscape (http://www.inkscape.org/) -->

<svg
   width="350mm"
   height="350mm"
   viewBox="0 0 350 350"
   version="1.1"
   id="svg5"
   xml:space="preserve"
   inkscape:version="1.2-beta (1b65182ce9, 2022-04-05)"
   sodipodi:docname="350_LDO_Texture.svg"
   xmlns:inkscape="http://www.inkscape.org/namespaces/inkscape"
   xmlns:sodipodi="http://sodipodi.sourceforge.net/DTD/sodipodi-0.dtd"
   xmlns="http://www.w3.org/2000/svg"
   xmlns:svg="http://www.w3.org/2000/svg"><sodipodi:namedview
     id="namedview7"
     pagecolor="#ffffff"
     bordercolor="#666666"
     borderopacity="1.0"
     inkscape:pageshadow="2"
     inkscape:pageopacity="0.0"
     inkscape:pagecheckerboard="0"
     inkscape:deskcolor="#d1d1d1"
     inkscape:document-units="mm"
     showgrid="false"
     inkscape:zoom="1.0670983"
     inkscape:cx="988.19383"
     inkscape:cy="1334.46"
     inkscape:window-width="1920"
     inkscape:window-height="1027"
     inkscape:window-x="-8"
     inkscape:window-y="-8"
     inkscape:window-maximized="1"
     inkscape:current-layer="layer1" /><defs
     id="defs2"><marker
       id="DistanceX"
       orient="auto"
       refX="0"
       refY="0"
       style="overflow:visible"><path
         d="M 3,-3 -3,3 M 0,-5 V 5"
         style="stroke:#000000;stroke-width:0.5"
         id="path184" /></marker><pattern
       id="Hatch"
       patternUnits="userSpaceOnUse"
       width="8"
       height="8"
       x="0"
       y="0"><path
         d="M8 4 l-4,4"
         stroke="#000000"
         stroke-width="0.25"
         linecap="square"
         id="path187" /><path
         d="M6 2 l-4,4"
         stroke="#000000"
         stroke-width="0.25"
         linecap="square"
         id="path189" /><path
         d="M4 0 l-4,4"
         stroke="#000000"
         stroke-width="0.25"
         linecap="square"
         id="path191" /></pattern><symbol
       id="*Model_Space" /><symbol
       id="*Paper_Space" /><symbol
       id="*Paper_Space0" /><marker
       id="DistanceX-8"
       orient="auto"
       refX="0"
       refY="0"
       style="overflow:visible"><path
         d="M 3,-3 -3,3 M 0,-5 V 5"
         style="stroke:#000000;stroke-width:0.5"
         id="path781" /></marker><pattern
       id="Hatch-2"
       patternUnits="userSpaceOnUse"
       width="8"
       height="8"
       x="0"
       y="0"><path
         d="M8 4 l-4,4"
         stroke="#000000"
         stroke-width="0.25"
         linecap="square"
         id="path784" /><path
         d="M6 2 l-4,4"
         stroke="#000000"
         stroke-width="0.25"
         linecap="square"
         id="path786" /><path
         d="M4 0 l-4,4"
         stroke="#000000"
         stroke-width="0.25"
         linecap="square"
         id="path788" /></pattern><symbol
       id="*Model_Space-9" /><symbol
       id="*Paper_Space-7" /><symbol
       id="*Paper_Space0-7" /><marker
       id="DistanceX-3"
       orient="auto"
       refX="0"
       refY="0"
       style="overflow:visible"><path
         d="M 3,-3 -3,3 M 0,-5 V 5"
         style="stroke:#000000;stroke-width:0.5"
         id="path2541" /></marker><pattern
       id="Hatch-3"
       patternUnits="userSpaceOnUse"
       width="8"
       height="8"
       x="0"
       y="0"><path
         d="M8 4 l-4,4"
         stroke="#000000"
         stroke-width="0.25"
         linecap="square"
         id="path2544" /><path
         d="M6 2 l-4,4"
         stroke="#000000"
         stroke-width="0.25"
         linecap="square"
         id="path2546" /><path
         d="M4 0 l-4,4"
         stroke="#000000"
         stroke-width="0.25"
         linecap="square"
         id="path2548" /></pattern><symbol
       id="*Model_Space-2" /><symbol
       id="*Paper_Space-1" /><symbol
       id="*Paper_Space0-8" /><pattern
       y="0"
       x="0"
       height="6"
       width="6"
       patternUnits="userSpaceOnUse"
       id="EMFhbasepattern" /><pattern
       y="0"
       x="0"
       height="6"
       width="6"
       patternUnits="userSpaceOnUse"
       id="EMFhbasepattern-6" /><pattern
       y="0"
       x="0"
       height="6"
       width="6"
       patternUnits="userSpaceOnUse"
       id="EMFhbasepattern-4" /><pattern
       y="0"
       x="0"
       height="6"
       width="6"
       patternUnits="userSpaceOnUse"
       id="EMFhbasepattern-6-1" /><marker
       id="DistanceX-6"
       orient="auto"
       refX="0"
       refY="0"
       style="overflow:visible"><path
         d="M 3,-3 -3,3 M 0,-5 V 5"
         style="stroke:#000000;stroke-width:0.5"
         id="path5617" /></marker><pattern
       id="Hatch-6"
       patternUnits="userSpaceOnUse"
       width="8"
       height="8"
       x="0"
       y="0"><path
         d="M8 4 l-4,4"
         stroke="#000000"
         stroke-width="0.25"
         linecap="square"
         id="path5620" /><path
         d="M6 2 l-4,4"
         stroke="#000000"
         stroke-width="0.25"
         linecap="square"
         id="path5622" /><path
         d="M4 0 l-4,4"
         stroke="#000000"
         stroke-width="0.25"
         linecap="square"
         id="path5624" /></pattern><symbol
       id="*MODEL_SPACE" /><symbol
       id="*PAPER_SPACE" /><symbol
       id="*PAPER_SPACE0" /><marker
       id="DistanceX-63"
       orient="auto"
       refX="0.0"
       refY="0.0"
       style="overflow:visible"><path
         d="M 3,-3 L -3,3 M 0,-5 L  0,5"
         style="stroke:#000000; stroke-width:0.5"
         id="path478" /></marker><pattern
       id="Hatch-0"
       patternUnits="userSpaceOnUse"
       width="8"
       height="8"
       x="0"
       y="0"><path
         d="M8 4 l-4,4"
         stroke="#000000"
         stroke-width="0.25"
         linecap="square"
         id="path481" /><path
         d="M6 2 l-4,4"
         stroke="#000000"
         stroke-width="0.25"
         linecap="square"
         id="path483" /><path
         d="M4 0 l-4,4"
         stroke="#000000"
         stroke-width="0.25"
         linecap="square"
         id="path485" /></pattern><symbol
       id="*MODEL_SPACE-6" /><symbol
       id="*PAPER_SPACE-2" /><symbol
       id="*PAPER_SPACE0-2" /></defs><g
     inkscape:label="Layer 1"
     inkscape:groupmode="layer"
     id="layer1"><g
       id="g1388"
       transform="matrix(0.26458333,0,0,0.26458333,0,53.00001)"
       style="stroke:#b3b3b3"><path
         style="fill:none;stroke:#b3b3b3;stroke-width:2.5;stroke-dasharray:none"
         d="M 0,1122.52 H 1322.83"
         id="path493" /><path
         style="fill:none;stroke:#b3b3b3;stroke-width:2.5;stroke-dasharray:none"
         d="m 1133.86,974.08764 0,-1174.40264"
         id="path495"
         sodipodi:nodetypes="cc" /><path
         style="fill:none;stroke:#b3b3b3;stroke-width:2.5;stroke-dasharray:none"
         d="M 1322.83,-11.3386 H 0"
         id="path497" /><path
         style="fill:none;stroke:#b3b3b3;stroke-width:2.5;stroke-dasharray:none"
         d="M 0,-200.315 V 1122.52"
         id="path499" /><path
         style="fill:none;stroke:#b3b3b3;stroke-width:2.5;stroke-dasharray:none"
         d="M 0,933.543 H 1322.83"
         id="path501" /><path
         style="fill:none;stroke:#b3b3b3;stroke-width:2.5;stroke-dasharray:none"
         d="M 0,744.567 H 1322.83"
         id="path503" /><path
         style="fill:none;stroke:#b3b3b3;stroke-width:2.5;stroke-dasharray:none"
         d="M 0,555.591 H 1322.83"
         id="path505" /><path
         style="fill:none;stroke:#b3b3b3;stroke-width:2.5;stroke-dasharray:none"
         d="M 0,366.614 H 1322.83"
         id="path507" /><path
         style="fill:none;stroke:#b3b3b3;stroke-width:2.5;stroke-dasharray:none"
         d="M 188.976,-200.315 V 1122.52"
         id="path509" /><path
         style="fill:none;stroke:#b3b3b3;stroke-width:2.5;stroke-dasharray:none"
         d="M 377.953,-200.315 V 1122.52"
         id="path511" /><path
         style="fill:none;stroke:#b3b3b3;stroke-width:2.5;stroke-dasharray:none"
         d="M 566.929,-200.315 V 1122.52"
         id="path513" /><path
         style="fill:none;stroke:#b3b3b3;stroke-width:0.66145833;stroke-dasharray:none"
         d="M 250.00003,350.00009 V 2.5105e-7"
         id="path597"
         transform="matrix(3.7795276,0,0,3.7795276,0,-200.315)" /><path
         style="fill:none;stroke:#b3b3b3;stroke-width:0.66145833;stroke-dasharray:none"
         d="M 349.99877,100.00006 H 0"
         id="path599"
         transform="matrix(3.7795276,0,0,3.7795276,0,-200.315)" /><path
         style="fill:none;stroke:#b3b3b3;stroke-width:0.66145833;stroke-dasharray:none"
         d="M 349.99877,350.00009 V 2.5105e-7"
         id="path641"
         transform="matrix(3.7795276,0,0,3.7795276,0,-200.315)" /><path
         style="fill:none;stroke:#b3b3b3;stroke-width:0.66145833;stroke-dasharray:none"
         d="M 349.99877,2.5105e-7 H 0"
         id="path643"
         transform="matrix(3.7795276,0,0,3.7795276,0,-200.315)" /><path
         style="fill:none;stroke:#b3b3b3;stroke-width:0.661458;stroke-dasharray:none"
         d="M 299.73588,338.12035 V 349.7293"
         id="path625-1-9-0-0"
         sodipodi:nodetypes="cc"
         transform="matrix(3.7795276,0,0,3.7795276,0,-200.315)" /><path
         style="fill:none;stroke:#b3b3b3;stroke-width:2.5;stroke-dasharray:none"
         d="M 755.906,-200.315 V 1122.52"
         id="path515" /></g><path
       style="fill:none;stroke:#b3b3b3;stroke-width:0.132292;stroke-dasharray:none"
       d="M 0,339.99884 H 326.21732"
       id="path517"
       sodipodi:nodetypes="cc" /><path
       style="fill:none;stroke:#b3b3b3;stroke-width:0.132292;stroke-dasharray:none"
       d="M 0,330.00024 H 268.11291"
       id="path519"
       sodipodi:nodetypes="cc" /><path
       style="fill:none;stroke:#b3b3b3;stroke-width:0.132292;stroke-dasharray:none"
       d="M 0,319.99899 H 267.1904"
       id="path521"
       sodipodi:nodetypes="cc" /><path
       style="fill:none;stroke:#b3b3b3;stroke-width:0.132292;stroke-dasharray:none"
       d="m 0,310.00012 267.1904,0"
       id="path523"
       sodipodi:nodetypes="cc" /><path
       style="fill:none;stroke:#b3b3b3;stroke-width:0.13229167;stroke-dasharray:none"
       d="M 0,290 H 349.99877"
       id="path525" /><path
       style="fill:none;stroke:#b3b3b3;stroke-width:0.13229167;stroke-dasharray:none"
       d="M 0,280.00007 H 349.99877"
       id="path527" /><path
       style="fill:none;stroke:#b3b3b3;stroke-width:0.13229167;stroke-dasharray:none"
       d="M 0,269.99988 H 349.99877"
       id="path529" /><path
       style="fill:none;stroke:#b3b3b3;stroke-width:0.13229167;stroke-dasharray:none"
       d="M 0,259.99995 H 349.99877"
       id="path531" /><path
       style="fill:none;stroke:#b3b3b3;stroke-width:0.13229167;stroke-dasharray:none"
       d="M 0,240.0001 H 349.99877"
       id="path533" /><path
       style="fill:none;stroke:#b3b3b3;stroke-width:0.13229167;stroke-dasharray:none"
       d="M 0,229.99991 H 349.99877"
       id="path535" /><path
       style="fill:none;stroke:#b3b3b3;stroke-width:0.13229167;stroke-dasharray:none"
       d="M 0,219.99998 H 349.99877"
       id="path537" /><path
       style="fill:none;stroke:#b3b3b3;stroke-width:0.13229167;stroke-dasharray:none"
       d="M 0,210.00005 H 349.99877"
       id="path539" /><path
       style="fill:none;stroke:#b3b3b3;stroke-width:0.13229167;stroke-dasharray:none"
       d="M 0,189.99994 H 349.99877"
       id="path541" /><path
       style="fill:none;stroke:#b3b3b3;stroke-width:0.13229167;stroke-dasharray:none"
       d="M 0,180.00001 H 349.99877"
       id="path543" /><path
       style="fill:none;stroke:#b3b3b3;stroke-width:0.13229167;stroke-dasharray:none"
       d="M 0,170.00008 H 349.99877"
       id="path545" /><path
       style="fill:none;stroke:#b3b3b3;stroke-width:0.13229167;stroke-dasharray:none"
       d="M 0,159.99989 H 349.99877"
       id="path547" /><path
       style="fill:none;stroke:#b3b3b3;stroke-width:0.13229167;stroke-dasharray:none"
       d="M 0,140.00004 H 349.99877"
       id="path549" /><path
       style="fill:none;stroke:#b3b3b3;stroke-width:0.13229167;stroke-dasharray:none"
       d="M 0,130.00011 H 349.99877"
       id="path551" /><path
       style="fill:none;stroke:#b3b3b3;stroke-width:0.13229167;stroke-dasharray:none"
       d="M 0,119.99992 H 349.99877"
       id="path553" /><path
       style="fill:none;stroke:#b3b3b3;stroke-width:0.13229167;stroke-dasharray:none"
       d="M 0,109.99999 H 349.99877"
       id="path555" /><path
       style="fill:none;stroke:#b3b3b3;stroke-width:0.13229167;stroke-dasharray:none"
       d="M 10.000006,2.5105e-7 V 350.00009"
       id="path557" /><path
       style="fill:none;stroke:#b3b3b3;stroke-width:0.13229167;stroke-dasharray:none"
       d="M 39.999972,2.5105e-7 V 350.00009"
       id="path563" /><path
       style="fill:none;stroke:#b3b3b3;stroke-width:0.13229167;stroke-dasharray:none"
       d="M 60.000091,2.5105e-7 V 350.00009"
       id="path565" /><path
       style="fill:none;stroke:#b3b3b3;stroke-width:0.13229167;stroke-dasharray:none"
       d="M 70.000018,2.5105e-7 V 350.00009"
       id="path567" /><path
       style="fill:none;stroke:#b3b3b3;stroke-width:0.13229167;stroke-dasharray:none"
       d="M 79.999945,2.5105e-7 V 350.00009"
       id="path569" /><path
       style="fill:none;stroke:#b3b3b3;stroke-width:0.13229167;stroke-dasharray:none"
       d="M 89.999872,2.5105e-7 V 350.00009"
       id="path571" /><path
       style="fill:none;stroke:#b3b3b3;stroke-width:0.13229167;stroke-dasharray:none"
       d="M 109.99999,2.5105e-7 V 350.00009"
       id="path573" /><path
       style="fill:none;stroke:#b3b3b3;stroke-width:0.13229167;stroke-dasharray:none"
       d="M 119.99992,2.5105e-7 V 350.00009"
       id="path575" /><path
       style="fill:none;stroke:#b3b3b3;stroke-width:0.13229167;stroke-dasharray:none"
       d="M 130.00011,2.5105e-7 V 350.00009"
       id="path577" /><path
       style="fill:none;stroke:#b3b3b3;stroke-width:0.13229167;stroke-dasharray:none"
       d="M 140.00004,2.5105e-7 V 350.00009"
       id="path579" /><path
       style="fill:none;stroke:#b3b3b3;stroke-width:0.13229167;stroke-dasharray:none"
       d="M 159.99989,2.5105e-7 V 350.00009"
       id="path581" /><path
       style="fill:none;stroke:#b3b3b3;stroke-width:0.13229167;stroke-dasharray:none"
       d="M 170.00008,2.5105e-7 V 350.00009"
       id="path583" /><path
       style="fill:none;stroke:#b3b3b3;stroke-width:0.13229167;stroke-dasharray:none"
       d="M 180.00001,2.5105e-7 V 350.00009"
       id="path585" /><path
       style="fill:none;stroke:#b3b3b3;stroke-width:0.13229167;stroke-dasharray:none"
       d="M 189.99994,2.5105e-7 V 350.00009"
       id="path587" /><path
       style="fill:none;stroke:#b3b3b3;stroke-width:0.13229167;stroke-dasharray:none"
       d="M 210.00005,2.5105e-7 V 350.00009"
       id="path589" /><path
       style="fill:none;stroke:#b3b3b3;stroke-width:0.13229167;stroke-dasharray:none"
       d="M 219.99998,2.5105e-7 V 350.00009"
       id="path591" /><path
       style="fill:none;stroke:#b3b3b3;stroke-width:0.13229167;stroke-dasharray:none"
       d="M 229.99991,2.5105e-7 V 350.00009"
       id="path593" /><path
       style="fill:none;stroke:#b3b3b3;stroke-width:0.13229167;stroke-dasharray:none"
       d="M 240.0001,2.5105e-7 V 350.00009"
       id="path595" /><path
       style="fill:none;stroke:#b3b3b3;stroke-width:0.13229167;stroke-dasharray:none"
       d="M 0,90.000137 H 349.99877"
       id="path601" /><path
       style="fill:none;stroke:#b3b3b3;stroke-width:0.13229167;stroke-dasharray:none"
       d="M 0,60.000012 H 349.99877"
       id="path607" /><path
       style="fill:none;stroke:#b3b3b3;stroke-width:0.13229167;stroke-dasharray:none"
       d="M 259.99995,2.5105e-7 V 350.00009"
       id="path609" /><path
       style="fill:none;stroke:#b3b3b3;stroke-width:0.132292;stroke-dasharray:none"
       d="M 269.99935,2.5105e-7 V 307.62283"
       id="path611"
       sodipodi:nodetypes="cc" /><path
       style="fill:none;stroke:#b3b3b3;stroke-width:0.132292;stroke-dasharray:none"
       d="M 280.0006,2.5105e-7 279.91294,307.62281"
       id="path613"
       sodipodi:nodetypes="cc" /><path
       style="fill:none;stroke:#b3b3b3;stroke-width:0.132292;stroke-dasharray:none"
       d="M 289.9992,2.5105e-7 289.9992,308.71113"
       id="path615"
       sodipodi:nodetypes="cc" /><path
       style="fill:none;stroke:#b3b3b3;stroke-width:0.132292;stroke-dasharray:none"
       d="m 329.99891,330.9884 0,19.01169"
       id="path625"
       sodipodi:nodetypes="cc" /><path
       style="fill:none;stroke:#b3b3b3;stroke-width:0.132292;stroke-dasharray:none"
       d="m 331.35901,330.00024 h 18.63976"
       id="path629"
       sodipodi:nodetypes="cc" /><path
       style="fill:none;stroke:#b3b3b3;stroke-width:0.132292;stroke-dasharray:none"
       d="m 332.89951,319.99899 17.09926,0"
       id="path631"
       sodipodi:nodetypes="cc" /><path
       style="fill:none;stroke:#b3b3b3;stroke-width:0.13229167;stroke-dasharray:none"
       d="M 0.33072916,20.000119 H 349.99877"
       id="path633" /><path
       style="fill:none;stroke:#b3b3b3;stroke-width:0.13229167;stroke-dasharray:none"
       d="M 0.33072916,30.000019 H 349.99877"
       id="path635" /><path
       style="fill:none;stroke:#b3b3b3;stroke-width:0.13229167;stroke-dasharray:none"
       d="M 30.000045,0.33072966 V 350.00009"
       id="path637" /><path
       style="fill:none;stroke:#b3b3b3;stroke-width:0.13229167;stroke-dasharray:none"
       d="M 20.000013,0.33072966 V 350.00009"
       id="path639" /><path
       style="fill:none;stroke:#b3b3b3;stroke-width:0.13229167;stroke-dasharray:none"
       d="M 0,39.999999 H 349.99877"
       id="path645" /><path
       style="fill:none;stroke:#b3b3b3;stroke-width:0.13229167;stroke-dasharray:none"
       d="M 0,70.000018 H 349.99877"
       id="path647" /><path
       style="fill:none;stroke:#b3b3b3;stroke-width:0.13229167;stroke-dasharray:none"
       d="M 0,79.999945 H 349.99877"
       id="path649" /><path
       style="fill:none;stroke:#b3b3b3;stroke-width:0.13229167;stroke-dasharray:none"
       d="M 0,9.9999272 H 349.99877"
       id="path651" /><path
       style="fill:none;stroke:#b3b3b3;stroke-width:0.132292;stroke-dasharray:none"
       d="M 309.99906,2.5105e-7 V 308.71113"
       id="path653"
       sodipodi:nodetypes="cc" /><path
       style="fill:none;stroke:#b3b3b3;stroke-width:0.13229167;stroke-dasharray:none"
       d="M 340.00016,2.5105e-7 V 350.00009"
       id="path655" /><path
       style="fill:none;stroke:#b3b3b3;stroke-width:0.132292;stroke-dasharray:none"
       d="M 320.00031,307.62281 320.00031,2.5105e-7"
       id="path657"
       sodipodi:nodetypes="cc" /><path
       style="fill:none;stroke:#b3b3b3;stroke-width:0.132292;stroke-dasharray:none"
       d="M 329.93276,307.62281 329.99891,2.5105e-7"
       id="path659"
       sodipodi:nodetypes="cc" /><path
       style="fill:none;stroke:#b3b3b3;stroke-width:0.132292;stroke-dasharray:none"
       d="M 270.08781,331.35978 270.13164,350"
       id="path627-5"
       sodipodi:nodetypes="cc" /><path
       style="fill:none;stroke:#b3b3b3;stroke-width:0.132292;stroke-dasharray:none"
       d="M 280.0006,338.12035 V 350"
       id="path627-0"
       sodipodi:nodetypes="cc" /><path
       style="fill:none;stroke:#b3b3b3;stroke-width:0.132292;stroke-dasharray:none"
       d="m 326.21732,340.00149 23.78145,0"
       id="path629-4"
       sodipodi:nodetypes="cc" /><path
       style="fill:none;stroke:#b3b3b3;stroke-width:0.132292;stroke-dasharray:none"
       d="m 319.86802,338.12 0,11.88"
       id="path625-1"
       sodipodi:nodetypes="cc" /><path
       style="fill:none;stroke:#b3b3b3;stroke-width:0.132292;stroke-dasharray:none"
       d="M 310.19334,338.12035 310.13135,350"
       id="path625-1-9"
       sodipodi:nodetypes="cc" /><path
       style="fill:none;stroke:#b3b3b3;stroke-width:0.132292;stroke-dasharray:none"
       d="M 290.13149,338.12035 V 349.7293"
       id="path625-1-9-0"
       sodipodi:nodetypes="cc" /><path
       style="fill:none;stroke:#b3b3b3;stroke-width:0.132292;stroke-dasharray:none"
       d="m 331.35901,310.08751 18.63976,-0.0877"
       id="path629-6"
       sodipodi:nodetypes="cc" /><g
       aria-label="350x350mm"
       id="text6426"
       style="font-size:7.05556px;line-height:1.25;font-family:Play;-inkscape-font-specification:'Play, Normal';letter-spacing:0px;word-spacing:0px;fill:#b3b3b3;stroke-width:0.264583"
       transform="translate(-1.3164625,-6.0126301)"
       inkscape:label="size_text"><path
         d="m 283.98533,341.72833 q -0.59267,0 -1.3335,-0.13405 v -0.508 q 0.83961,0.17638 1.40406,0.17638 0.93839,0 0.93839,-0.52916 v -0.78317 q 0,-0.28928 -0.31045,-0.381 -0.14817,-0.0353 -0.26811,-0.0423 -0.11289,-0.0141 -0.29633,-0.0141 h -0.88195 v -0.43745 h 0.762 q 0.18345,0 0.29633,-0.007 0.11289,-0.0141 0.26106,-0.0565 0.15522,-0.0353 0.23989,-0.13405 0.0847,-0.0988 0.0847,-0.254 v -0.81845 q 0,-0.35983 -0.84667,-0.35983 -0.56445,0 -1.29117,0.11289 v -0.48684 q 0.60678,-0.0635 1.28411,-0.0635 0.78317,0 1.13595,0.17639 0.35983,0.16933 0.35983,0.58561 v 0.88195 q 0,0.21872 -0.17639,0.36689 -0.17639,0.14111 -0.45155,0.18344 v 0.0282 q 0.16933,0.0282 0.27516,0.0635 0.11289,0.0282 0.23989,0.0917 0.24695,0.127 0.24695,0.4445 v 0.91722 q 0,0.23989 -0.10584,0.43039 -0.10583,0.1905 -0.26811,0.29633 -0.14111,0.0988 -0.37394,0.16228 -0.23284,0.0564 -0.45861,0.0776 -0.26811,0.0141 -0.46567,0.0141 z"
         id="path7662" /><path
         d="m 288.16222,341.72833 q -0.5715,0 -1.34761,-0.127 v -0.508 q 0.81844,0.16933 1.36878,0.16933 0.43039,0 0.62794,-0.11994 0.20461,-0.127 0.20461,-0.40922 v -0.91017 q 0,-0.29633 -0.254,-0.381 -0.11994,-0.0353 -0.22577,-0.0423 -0.0988,-0.0141 -0.26106,-0.0141 h -1.35467 v -2.30717 h 2.63878 v 0.47978 h -2.00378 v 1.38994 h 1.05834 q 0.28222,0 0.50094,0.0706 0.21872,0.0635 0.38806,0.22577 0.17639,0.17639 0.17639,0.45862 v 1.04422 q 0,0.24694 -0.0917,0.43744 -0.0847,0.18345 -0.23283,0.28928 -0.13406,0.0988 -0.34572,0.16228 -0.20461,0.0635 -0.40922,0.0776 -0.254,0.0141 -0.43745,0.0141 z"
         id="path7664" /><path
         d="m 292.33206,341.72833 q -0.31045,0 -0.508,-0.0212 -0.1905,-0.0212 -0.40923,-0.0847 -0.23283,-0.0635 -0.37394,-0.18345 -0.13406,-0.127 -0.22578,-0.35277 -0.0917,-0.21167 -0.0917,-0.52917 v -2.31423 q 0,-0.3175 0.0917,-0.55738 0.0917,-0.23989 0.23989,-0.381 0.13406,-0.11995 0.35278,-0.1905 0.22578,-0.0776 0.45155,-0.0988 0.254,-0.0141 0.47273,-0.0141 0.31044,0 0.50094,0.0212 0.19756,0.0212 0.41628,0.0847 0.23283,0.0706 0.37394,0.19756 0.14817,0.127 0.23989,0.35983 0.0917,0.23283 0.0917,0.5715 v 2.32128 q 0,0.28928 -0.0917,0.51505 -0.0917,0.22578 -0.23989,0.35278 -0.14111,0.11995 -0.35983,0.19756 -0.21872,0.0706 -0.4445,0.0847 -0.19756,0.0212 -0.48683,0.0212 z m 0.0141,-0.41628 q 0.37394,0 0.57855,-0.0494 0.20461,-0.0564 0.29634,-0.21166 0.0917,-0.15522 0.0917,-0.45861 v -2.39889 q 0,-0.33162 -0.0988,-0.49389 -0.0917,-0.16934 -0.29633,-0.22578 -0.19756,-0.0565 -0.57856,-0.0565 -0.38805,0 -0.59267,0.0565 -0.19755,0.0564 -0.28927,0.22578 -0.0917,0.16227 -0.0917,0.49389 v 2.39889 q 0,0.30339 0.0917,0.45861 0.0988,0.15522 0.30339,0.21166 0.20461,0.0494 0.58561,0.0494 z"
         id="path7666" /><path
         d="m 295.72578,339.90094 -1.19945,-1.65806 h 0.69851 l 0.84666,1.24884 0.85373,-1.24884 h 0.6985 l -1.19945,1.65806 1.27,1.75684 h -0.6985 l -0.92428,-1.34762 -0.91722,1.34762 h -0.6985 z"
         id="path7668" /><path
         d="m 299.64162,341.72833 q -0.59267,0 -1.3335,-0.13405 v -0.508 q 0.83961,0.17638 1.40405,0.17638 0.93839,0 0.93839,-0.52916 v -0.78317 q 0,-0.28928 -0.31044,-0.381 -0.14817,-0.0353 -0.26811,-0.0423 -0.11289,-0.0141 -0.29634,-0.0141 h -0.88194 v -0.43745 h 0.762 q 0.18344,0 0.29633,-0.007 0.11289,-0.0141 0.26106,-0.0565 0.15522,-0.0353 0.23989,-0.13405 0.0847,-0.0988 0.0847,-0.254 v -0.81845 q 0,-0.35983 -0.84666,-0.35983 -0.56445,0 -1.29117,0.11289 v -0.48684 q 0.60678,-0.0635 1.28411,-0.0635 0.78317,0 1.13594,0.17639 0.35984,0.16933 0.35984,0.58561 v 0.88195 q 0,0.21872 -0.17639,0.36689 -0.17639,0.14111 -0.45156,0.18344 v 0.0282 q 0.16934,0.0282 0.27517,0.0635 0.11289,0.0282 0.23989,0.0917 0.24694,0.127 0.24694,0.4445 v 0.91722 q 0,0.23989 -0.10583,0.43039 -0.10583,0.1905 -0.26811,0.29633 -0.14111,0.0988 -0.37395,0.16228 -0.23283,0.0564 -0.45861,0.0776 -0.26811,0.0141 -0.46566,0.0141 z"
         id="path7670" /><path
         d="m 303.81851,341.72833 q -0.5715,0 -1.34761,-0.127 v -0.508 q 0.81844,0.16933 1.36877,0.16933 0.43039,0 0.62795,-0.11994 0.20461,-0.127 0.20461,-0.40922 v -0.91017 q 0,-0.29633 -0.254,-0.381 -0.11994,-0.0353 -0.22578,-0.0423 -0.0988,-0.0141 -0.26105,-0.0141 h -1.35467 v -2.30717 h 2.63878 v 0.47978 h -2.00378 v 1.38994 h 1.05833 q 0.28223,0 0.50095,0.0706 0.21872,0.0635 0.38805,0.22577 0.17639,0.17639 0.17639,0.45862 v 1.04422 q 0,0.24694 -0.0917,0.43744 -0.0847,0.18345 -0.23283,0.28928 -0.13406,0.0988 -0.34573,0.16228 -0.20461,0.0635 -0.40922,0.0776 -0.254,0.0141 -0.43744,0.0141 z"
         id="path7672" /><path
         d="m 307.98834,341.72833 q -0.31044,0 -0.508,-0.0212 -0.1905,-0.0212 -0.40922,-0.0847 -0.23283,-0.0635 -0.37395,-0.18345 -0.13405,-0.127 -0.22577,-0.35277 -0.0917,-0.21167 -0.0917,-0.52917 v -2.31423 q 0,-0.3175 0.0917,-0.55738 0.0917,-0.23989 0.23989,-0.381 0.13405,-0.11995 0.35277,-0.1905 0.22578,-0.0776 0.45156,-0.0988 0.254,-0.0141 0.47272,-0.0141 0.31045,0 0.50095,0.0212 0.19755,0.0212 0.41628,0.0847 0.23283,0.0706 0.37394,0.19756 0.14817,0.127 0.23989,0.35983 0.0917,0.23283 0.0917,0.5715 v 2.32128 q 0,0.28928 -0.0917,0.51505 -0.0917,0.22578 -0.23989,0.35278 -0.14111,0.11995 -0.35983,0.19756 -0.21873,0.0706 -0.4445,0.0847 -0.19756,0.0212 -0.48684,0.0212 z m 0.0141,-0.41628 q 0.37395,0 0.57856,-0.0494 0.20461,-0.0564 0.29633,-0.21166 0.0917,-0.15522 0.0917,-0.45861 v -2.39889 q 0,-0.33162 -0.0988,-0.49389 -0.0917,-0.16934 -0.29634,-0.22578 -0.19755,-0.0565 -0.57855,-0.0565 -0.38806,0 -0.59267,0.0565 -0.19755,0.0564 -0.28928,0.22578 -0.0917,0.16227 -0.0917,0.49389 v 2.39889 q 0,0.30339 0.0917,0.45861 0.0988,0.15522 0.30339,0.21166 0.20461,0.0494 0.58561,0.0494 z"
         id="path7674" /><path
         d="m 310.59184,338.24288 h 0.635 v 0.41628 q 0.0988,-0.48683 1.15006,-0.48683 0.85372,0 1.06539,0.46567 0.0635,-0.22578 0.381,-0.34573 0.32456,-0.11994 0.79022,-0.11994 0.635,0 0.89606,0.23989 0.26105,0.23283 0.26105,0.74083 v 2.50473 h -0.635 v -2.46239 q 0,-0.13406 -0.0212,-0.21873 -0.0212,-0.0847 -0.0847,-0.16933 -0.14111,-0.17639 -0.62794,-0.17639 -0.37395,0 -0.55739,0.0494 -0.18345,0.0494 -0.254,0.16933 -0.0635,0.11995 -0.0635,0.34573 v 2.46239 h -0.635 v -2.46239 q 0,-0.13406 -0.0212,-0.21873 -0.0212,-0.0847 -0.0847,-0.16933 -0.14111,-0.17639 -0.62089,-0.17639 -0.38805,0 -0.58561,0.0494 -0.19755,0.0494 -0.27517,0.16933 -0.0776,0.11289 -0.0776,0.34573 v 2.46239 h -0.635 z"
         id="path7676" /><path
         d="m 316.87129,338.24288 h 0.635 v 0.41628 q 0.0988,-0.48683 1.15005,-0.48683 0.85373,0 1.06539,0.46567 0.0635,-0.22578 0.381,-0.34573 0.32456,-0.11994 0.79023,-0.11994 0.635,0 0.89605,0.23989 0.26106,0.23283 0.26106,0.74083 v 2.50473 h -0.635 v -2.46239 q 0,-0.13406 -0.0212,-0.21873 -0.0212,-0.0847 -0.0847,-0.16933 -0.14111,-0.17639 -0.62794,-0.17639 -0.37395,0 -0.55739,0.0494 -0.18344,0.0494 -0.254,0.16933 -0.0635,0.11995 -0.0635,0.34573 v 2.46239 h -0.635 v -2.46239 q 0,-0.13406 -0.0212,-0.21873 -0.0212,-0.0847 -0.0847,-0.16933 -0.14111,-0.17639 -0.62089,-0.17639 -0.38806,0 -0.58561,0.0494 -0.19756,0.0494 -0.27517,0.16933 -0.0776,0.11289 -0.0776,0.34573 v 2.46239 h -0.635 z"
         id="path7678" /></g><path
       style="display:inline;opacity:1;fill:#d40000;fill-opacity:1;stroke:none;stroke-width:4.37741;stroke-linecap:round;stroke-linejoin:round;stroke-miterlimit:4;stroke-dasharray:none;stroke-dashoffset:0;stroke-opacity:1"
       d="m 328.32806,310.14295 -4.30475,0.005 -11.75324,17.31629 h 4.28892 z m -12.20622,0.005 -5.88086,8.64287 h 4.28948 l 5.85542,-8.63155 z m 9.94696,8.61913 -5.88085,8.64343 h 4.28892 l 5.85541,-8.63156 z"
       id="rect812"
       inkscape:connector-curvature="0"
       inkscape:label="VORON_LOGO"
       sodipodi:insensitive="true" /><path
       style="fill:#336799;fill-opacity:1;fill-rule:nonzero;stroke:none;stroke-width:0.0830104;stroke-linecap:butt;stroke-linejoin:miter;stroke-miterlimit:10;stroke-dasharray:none;stroke-dashoffset:0;stroke-opacity:1"
       d="m 271.38826,309.93371 v 1.59453 l 4.01771,4.10933 c 0.47213,-0.73694 1.09935,-1.36201 1.83791,-1.83159 l -1.21856,-1.27287 8.90977,-0.0773 2.39773,2.40195 -0.007,9.2728 -1.88475,-1.86951 c -0.4791,0.70518 -1.10258,1.30046 -1.82914,1.74643 l 3.59358,3.66573 2.72041,-7.8e-4 0.002,-13.87366 -3.78749,-3.86452 z m 0.008,2.73674 -0.002,11.13469 3.77632,3.86627 10.85793,-0.0101 -2.37763,-2.5952 h -7.33939 l -2.32039,-2.31665 v -7.4936 z m 9.06501,1.13976 c -2.80412,3e-5 -5.07729,2.27326 -5.07723,5.07738 3e-5,2.80407 2.27316,5.0772 5.07723,5.07723 2.80406,-3e-5 5.0772,-2.27316 5.07722,-5.07723 6e-5,-2.80412 -2.2731,-5.07735 -5.07722,-5.07738 z m 0,2.49467 c 1.4264,-2e-5 2.58274,1.15631 2.58271,2.58271 -6e-5,1.42635 -1.15638,2.58259 -2.58271,2.58256 -1.42635,3e-5 -2.58265,-1.15621 -2.58272,-2.58256 -3e-5,-1.4264 1.15632,-2.58273 2.58272,-2.58271 z"
       id="rect829"
       inkscape:connector-curvature="0"
       sodipodi:nodetypes="cccccccccccccccccccccccccccccccccc"
       inkscape:label="LDO_LOGO"
       sodipodi:insensitive="true" /><path
       id="rect5300"
       style="opacity:0.8;fill:#b3b3b3;stroke:#b3b3b3;stroke-width:0.103349;stroke-linecap:round;stroke-dasharray:none"
       d="m 295.72594,316.23272 2.62225,2.62226 -2.62253,2.62254 1.84008,1.84008 2.62254,-2.62254 2.62254,2.62255 1.84009,-1.84009 -2.62254,-2.62255 2.62254,-2.62253 -1.84009,-1.84009 -2.62254,2.62254 -2.62225,-2.62226 z"
       inkscape:label="CROSS" /></g></svg>
